<svg width="17" height="30" viewBox="0 0 17 30" fill="none" xmlns="http://www.w3.org/2000/svg">
<path d="M2.8575 29.2929C2.46697 29.6834 1.83381 29.6834 1.44328 29.2929C1.05276 28.9024 1.05276 28.2692 1.44328 27.8787L14.8783 14.4437C15.2688 14.0531 15.902 14.0531 16.2925 14.4437C16.6831 14.8342 16.6831 15.4673 16.2925 15.8579L2.8575 29.2929Z" fill="#C4C4C4"/>
<path d="M1.44343 2.42281C1.05291 2.03228 1.05291 1.39912 1.44344 1.00859C1.83396 0.618067 2.46712 0.618068 2.85765 1.00859L16.2927 14.4436C16.6832 14.8341 16.6832 15.4673 16.2927 15.8578C15.9022 16.2484 15.269 16.2484 14.8785 15.8578L1.44343 2.42281Z" fill="#C4C4C4"/>
</svg>
