<svg width="60" height="74" viewBox="0 0 60 74" fill="none" xmlns="http://www.w3.org/2000/svg">
<path d="M16.0408 70.5455L15.449 72.8485C13.8338 73.6789 11.9235 74 10.1205 74C4.36189 74 0 70.4641 0 64.9737C0 57.9832 4.84618 54.795 10.7121 54.795C12.4889 54.795 14.6415 55.25 16.2025 56.1072C15.9601 57.0185 15.7987 57.9292 15.5838 58.8671H15.2071C14.2105 57.4198 12.4889 56.4026 10.7392 56.4026C6.27238 56.4026 4.46942 60.6614 4.46942 64.5979C4.46942 69.1782 6.72958 72.393 10.8738 72.393C12.5422 72.393 14.4798 71.5365 15.6912 70.3844L16.0408 70.5455" fill="#245549"/>
<path d="M19.7207 55.2806C20.3916 55.3344 21.0648 55.3931 21.7368 55.3931C22.409 55.3931 23.081 55.3344 23.7535 55.2806V73.6345C23.081 73.581 22.409 73.5224 21.7368 73.5224C21.0648 73.5224 20.3916 73.581 19.7207 73.6345V55.2806" fill="#245549"/>
<path d="M28.52 55.2804V73.5139H36.0562C41.5788 73.5139 45.8594 69.9216 45.8594 63.876C45.8594 59.489 43.49 55.4952 37.7263 55.2804H28.52ZM32.5534 56.8401H35.1941C38.9928 56.8401 41.3898 58.8202 41.3898 63.8493C41.3898 70.109 38.5618 71.9544 34.8433 71.9544H32.5534V56.8401" fill="#245549"/>
<path d="M59.5053 55.2772C59.451 55.6495 59.3733 56.0492 59.3733 56.4215C59.3733 56.7955 59.451 57.1957 59.5053 57.568C57.8627 57.354 56.0327 57.1411 53.2886 57.1957V62.9493H56.0864C57.2987 62.9493 58.4009 62.8433 59.3968 62.7103C59.3436 63.0826 59.2384 63.4827 59.2384 63.8555C59.2384 64.2284 59.3436 64.6282 59.3968 65.0004C58.4009 64.8665 57.2987 64.7607 56.0864 64.7607H53.2886V71.6005C56.0327 71.5737 57.8627 71.4412 59.5053 71.2282C59.451 71.6005 59.3733 72.0003 59.3733 72.373C59.3733 72.7459 59.451 73.1454 59.5053 73.519H49.2554V55.2772H59.5053" fill="#245549"/>
<path d="M49.3762 41.6276H44.6589C46.4558 40.2281 48.0453 38.5811 49.3762 36.7349V41.6276ZM29.9183 41.6269L10.2002 41.5899V36.1531L29.8116 36.1792C37.0788 36.1622 42.9631 30.2911 42.9631 23.0492C42.9631 19.7423 41.7276 16.7297 39.7024 14.4205H46.5133C47.8151 16.8712 48.5556 19.7954 48.5556 22.8343C48.5556 33.0876 40.2109 41.3994 29.9183 41.6269V41.6269ZM10.2002 4.53976H14.2975C12.76 5.82948 11.3915 7.31037 10.2201 8.94231L10.2002 4.53976ZM38.2266 22.8796C38.2266 27.525 34.4447 31.2915 29.7819 31.2915C25.1182 31.2915 21.3378 27.525 21.3378 22.8796C21.3378 18.2334 25.1182 14.4674 29.7819 14.4674C34.4447 14.4674 38.2266 18.2334 38.2266 22.8796V22.8796ZM49.3745 9.92604C49.3745 9.92604 29.8411 9.91768 29.7819 9.91768C22.5014 9.91768 16.5998 15.7967 16.5998 23.0492C16.5998 26.3744 17.8509 29.4028 19.897 31.716H13.5511C12.1053 29.078 11.2868 26.0522 11.2816 22.8343C11.2652 12.6849 20.1498 4.55314 29.0104 4.53976H49.3745V9.92604ZM53.841 22.8796C53.841 19.8433 53.2881 16.9459 52.2701 14.4205H53.9328L53.8993 0.000110106H5.57915L5.54199 14.4529H7.22763C6.31783 16.9799 5.72249 20.0403 5.72249 22.8796C5.72249 25.989 6.31783 28.9602 7.40006 31.6856H5.61474V31.716H5.60059V36.3011H5.60646L5.58614 46.1518H34.672C34.7404 46.1615 34.8031 46.1544 34.8676 46.1518H53.9639L53.9448 31.6163L52.2139 31.6017C53.1891 29.0055 53.841 25.8246 53.841 22.8796" fill="#245549"/>
<path d="M29.7198 27.4297C27.2649 27.4297 25.2739 25.447 25.2739 23.0003C25.2739 20.5542 27.2649 18.5708 29.7198 18.5708C32.1759 18.5708 34.1675 20.5542 34.1675 23.0003C34.1675 25.447 32.1759 27.4297 29.7198 27.4297Z" fill="#245549"/>
</svg>
