<svg width="181" height="74" viewBox="0 0 181 74" fill="none" xmlns="http://www.w3.org/2000/svg">
<path d="M85.852 15.168C84.8533 15.168 83.948 14.9533 83.136 14.524C82.3333 14.0853 81.6987 13.4833 81.232 12.718C80.7747 11.9433 80.546 11.0707 80.546 10.1C80.546 9.12933 80.7747 8.26133 81.232 7.496C81.6987 6.72133 82.3333 6.11933 83.136 5.69C83.948 5.25133 84.858 5.032 85.866 5.032C86.7153 5.032 87.4807 5.18133 88.162 5.48C88.8527 5.77867 89.4313 6.208 89.898 6.768L88.442 8.112C87.7793 7.34667 86.958 6.964 85.978 6.964C85.3713 6.964 84.83 7.09933 84.354 7.37C83.878 7.63133 83.5047 8 83.234 8.476C82.9727 8.952 82.842 9.49333 82.842 10.1C82.842 10.7067 82.9727 11.248 83.234 11.724C83.5047 12.2 83.878 12.5733 84.354 12.844C84.83 13.1053 85.3713 13.236 85.978 13.236C86.958 13.236 87.7793 12.8487 88.442 12.074L89.898 13.418C89.4313 13.9873 88.8527 14.4213 88.162 14.72C87.4713 15.0187 86.7013 15.168 85.852 15.168ZM98.3938 11.262C98.3938 11.29 98.3798 11.486 98.3518 11.85H92.6538C92.7565 12.3167 92.9991 12.6853 93.3818 12.956C93.7645 13.2267 94.2405 13.362 94.8098 13.362C95.2018 13.362 95.5471 13.306 95.8458 13.194C96.1538 13.0727 96.4385 12.886 96.6998 12.634L97.8618 13.894C97.1525 14.706 96.1165 15.112 94.7538 15.112C93.9045 15.112 93.1531 14.9487 92.4998 14.622C91.8465 14.286 91.3425 13.824 90.9878 13.236C90.6331 12.648 90.4558 11.9807 90.4558 11.234C90.4558 10.4967 90.6285 9.834 90.9738 9.246C91.3285 8.64867 91.8091 8.18667 92.4158 7.86C93.0318 7.524 93.7178 7.356 94.4738 7.356C95.2111 7.356 95.8785 7.51467 96.4758 7.832C97.0731 8.14933 97.5398 8.60667 97.8758 9.204C98.2211 9.792 98.3938 10.478 98.3938 11.262ZM94.4878 9.008C93.9931 9.008 93.5778 9.148 93.2418 9.428C92.9058 9.708 92.7005 10.0907 92.6258 10.576H96.3358C96.2611 10.1 96.0558 9.722 95.7198 9.442C95.3838 9.15267 94.9731 9.008 94.4878 9.008ZM104.426 7.356C105.359 7.356 106.111 7.636 106.68 8.196C107.259 8.756 107.548 9.58667 107.548 10.688V15H105.364V11.024C105.364 10.4267 105.233 9.98333 104.972 9.694C104.711 9.39533 104.333 9.246 103.838 9.246C103.287 9.246 102.849 9.41867 102.522 9.764C102.195 10.1 102.032 10.604 102.032 11.276V15H99.8478V7.468H101.934V8.35C102.223 8.03267 102.583 7.79 103.012 7.622C103.441 7.44467 103.913 7.356 104.426 7.356ZM114.386 14.636C114.171 14.7947 113.905 14.916 113.588 15C113.28 15.0747 112.953 15.112 112.608 15.112C111.712 15.112 111.016 14.8833 110.522 14.426C110.036 13.9687 109.794 13.2967 109.794 12.41V9.316H108.632V7.636H109.794V5.802H111.978V7.636H113.854V9.316H111.978V12.382C111.978 12.6993 112.057 12.9467 112.216 13.124C112.384 13.292 112.617 13.376 112.916 13.376C113.261 13.376 113.555 13.2827 113.798 13.096L114.386 14.636ZM117.698 8.462C117.959 8.098 118.309 7.82267 118.748 7.636C119.196 7.44933 119.709 7.356 120.288 7.356V9.372C120.045 9.35333 119.882 9.344 119.798 9.344C119.172 9.344 118.682 9.52133 118.328 9.876C117.973 10.2213 117.796 10.744 117.796 11.444V15H115.612V7.468H117.698V8.462ZM125.102 15.112C124.308 15.112 123.594 14.9487 122.96 14.622C122.334 14.286 121.844 13.824 121.49 13.236C121.135 12.648 120.958 11.9807 120.958 11.234C120.958 10.4873 121.135 9.82 121.49 9.232C121.844 8.644 122.334 8.18667 122.96 7.86C123.594 7.524 124.308 7.356 125.102 7.356C125.895 7.356 126.604 7.524 127.23 7.86C127.855 8.18667 128.345 8.644 128.7 9.232C129.054 9.82 129.232 10.4873 129.232 11.234C129.232 11.9807 129.054 12.648 128.7 13.236C128.345 13.824 127.855 14.286 127.23 14.622C126.604 14.9487 125.895 15.112 125.102 15.112ZM125.102 13.32C125.662 13.32 126.119 13.1333 126.474 12.76C126.838 12.3773 127.02 11.8687 127.02 11.234C127.02 10.5993 126.838 10.0953 126.474 9.722C126.119 9.33933 125.662 9.148 125.102 9.148C124.542 9.148 124.08 9.33933 123.716 9.722C123.352 10.0953 123.17 10.5993 123.17 11.234C123.17 11.8687 123.352 12.3773 123.716 12.76C124.08 13.1333 124.542 13.32 125.102 13.32ZM142.328 4.612V15H140.242V14.132C139.701 14.7853 138.917 15.112 137.89 15.112C137.181 15.112 136.537 14.9533 135.958 14.636C135.389 14.3187 134.941 13.866 134.614 13.278C134.288 12.69 134.124 12.0087 134.124 11.234C134.124 10.4593 134.288 9.778 134.614 9.19C134.941 8.602 135.389 8.14933 135.958 7.832C136.537 7.51467 137.181 7.356 137.89 7.356C138.852 7.356 139.603 7.65933 140.144 8.266V4.612H142.328ZM138.268 13.32C138.819 13.32 139.276 13.1333 139.64 12.76C140.004 12.3773 140.186 11.8687 140.186 11.234C140.186 10.5993 140.004 10.0953 139.64 9.722C139.276 9.33933 138.819 9.148 138.268 9.148C137.708 9.148 137.246 9.33933 136.882 9.722C136.518 10.0953 136.336 10.5993 136.336 11.234C136.336 11.8687 136.518 12.3773 136.882 12.76C137.246 13.1333 137.708 13.32 138.268 13.32ZM151.728 11.262C151.728 11.29 151.714 11.486 151.686 11.85H145.988C146.09 12.3167 146.333 12.6853 146.716 12.956C147.098 13.2267 147.574 13.362 148.144 13.362C148.536 13.362 148.881 13.306 149.18 13.194C149.488 13.0727 149.772 12.886 150.034 12.634L151.196 13.894C150.486 14.706 149.45 15.112 148.088 15.112C147.238 15.112 146.487 14.9487 145.834 14.622C145.18 14.286 144.676 13.824 144.322 13.236C143.967 12.648 143.79 11.9807 143.79 11.234C143.79 10.4967 143.962 9.834 144.308 9.246C144.662 8.64867 145.143 8.18667 145.75 7.86C146.366 7.524 147.052 7.356 147.808 7.356C148.545 7.356 149.212 7.51467 149.81 7.832C150.407 8.14933 150.874 8.60667 151.21 9.204C151.555 9.792 151.728 10.478 151.728 11.262ZM147.822 9.008C147.327 9.008 146.912 9.148 146.576 9.428C146.24 9.708 146.034 10.0907 145.96 10.576H149.67C149.595 10.1 149.39 9.722 149.054 9.442C148.718 9.15267 148.307 9.008 147.822 9.008ZM81.162 22.2H83.43V32H81.162V22.2ZM90.1798 24.356C91.1131 24.356 91.8644 24.636 92.4338 25.196C93.0124 25.756 93.3018 26.5867 93.3018 27.688V32H91.1178V28.024C91.1178 27.4267 90.9871 26.9833 90.7258 26.694C90.4644 26.3953 90.0864 26.246 89.5918 26.246C89.0411 26.246 88.6024 26.4187 88.2758 26.764C87.9491 27.1 87.7858 27.604 87.7858 28.276V32H85.6018V24.468H87.6878V25.35C87.9771 25.0327 88.3364 24.79 88.7658 24.622C89.1951 24.4447 89.6664 24.356 90.1798 24.356ZM102.621 24.468L99.4427 32H97.1887L94.0247 24.468H96.2787L98.3647 29.592L100.521 24.468H102.621ZM110.685 28.262C110.685 28.29 110.671 28.486 110.643 28.85H104.945C105.047 29.3167 105.29 29.6853 105.673 29.956C106.055 30.2267 106.531 30.362 107.101 30.362C107.493 30.362 107.838 30.306 108.137 30.194C108.445 30.0727 108.729 29.886 108.991 29.634L110.153 30.894C109.443 31.706 108.407 32.112 107.045 32.112C106.195 32.112 105.444 31.9487 104.791 31.622C104.137 31.286 103.633 30.824 103.279 30.236C102.924 29.648 102.747 28.9807 102.747 28.234C102.747 27.4967 102.919 26.834 103.265 26.246C103.619 25.6487 104.1 25.1867 104.707 24.86C105.323 24.524 106.009 24.356 106.765 24.356C107.502 24.356 108.169 24.5147 108.767 24.832C109.364 25.1493 109.831 25.6067 110.167 26.204C110.512 26.792 110.685 27.478 110.685 28.262ZM106.779 26.008C106.284 26.008 105.869 26.148 105.533 26.428C105.197 26.708 104.991 27.0907 104.917 27.576H108.627C108.552 27.1 108.347 26.722 108.011 26.442C107.675 26.1527 107.264 26.008 106.779 26.008ZM114.673 32.112C114.048 32.112 113.436 32.0373 112.839 31.888C112.242 31.7293 111.766 31.5333 111.411 31.3L112.139 29.732C112.475 29.9467 112.881 30.124 113.357 30.264C113.833 30.3947 114.3 30.46 114.757 30.46C115.681 30.46 116.143 30.2313 116.143 29.774C116.143 29.5593 116.017 29.4053 115.765 29.312C115.513 29.2187 115.126 29.1393 114.603 29.074C113.987 28.9807 113.478 28.8733 113.077 28.752C112.676 28.6307 112.326 28.416 112.027 28.108C111.738 27.8 111.593 27.3613 111.593 26.792C111.593 26.316 111.728 25.896 111.999 25.532C112.279 25.1587 112.68 24.8693 113.203 24.664C113.735 24.4587 114.36 24.356 115.079 24.356C115.611 24.356 116.138 24.4167 116.661 24.538C117.193 24.65 117.632 24.8087 117.977 25.014L117.249 26.568C116.586 26.1947 115.863 26.008 115.079 26.008C114.612 26.008 114.262 26.0733 114.029 26.204C113.796 26.3347 113.679 26.5027 113.679 26.708C113.679 26.9413 113.805 27.1047 114.057 27.198C114.309 27.2913 114.71 27.38 115.261 27.464C115.877 27.5667 116.381 27.6787 116.773 27.8C117.165 27.912 117.506 28.122 117.795 28.43C118.084 28.738 118.229 29.1673 118.229 29.718C118.229 30.1847 118.089 30.6 117.809 30.964C117.529 31.328 117.118 31.6127 116.577 31.818C116.045 32.014 115.41 32.112 114.673 32.112ZM124.434 31.636C124.22 31.7947 123.954 31.916 123.636 32C123.328 32.0747 123.002 32.112 122.656 32.112C121.76 32.112 121.065 31.8833 120.57 31.426C120.085 30.9687 119.842 30.2967 119.842 29.41V26.316H118.68V24.636H119.842V22.802H122.026V24.636H123.902V26.316H122.026V29.382C122.026 29.6993 122.106 29.9467 122.264 30.124C122.432 30.292 122.666 30.376 122.964 30.376C123.31 30.376 123.604 30.2827 123.846 30.096L124.434 31.636ZM125.66 24.468H127.844V32H125.66V24.468ZM126.752 23.418C126.351 23.418 126.024 23.3013 125.772 23.068C125.52 22.8347 125.394 22.5453 125.394 22.2C125.394 21.8547 125.52 21.5653 125.772 21.332C126.024 21.0987 126.351 20.982 126.752 20.982C127.154 20.982 127.48 21.094 127.732 21.318C127.984 21.542 128.11 21.822 128.11 22.158C128.11 22.522 127.984 22.8253 127.732 23.068C127.48 23.3013 127.154 23.418 126.752 23.418ZM137.641 24.468V30.74C137.641 32.1213 137.282 33.148 136.563 33.82C135.845 34.492 134.795 34.828 133.413 34.828C132.685 34.828 131.995 34.7393 131.341 34.562C130.688 34.3847 130.147 34.128 129.717 33.792L130.585 32.224C130.903 32.4853 131.304 32.6907 131.789 32.84C132.275 32.9987 132.76 33.078 133.245 33.078C134.001 33.078 134.557 32.9053 134.911 32.56C135.275 32.224 135.457 31.7107 135.457 31.02V30.698C134.888 31.3233 134.095 31.636 133.077 31.636C132.387 31.636 131.752 31.4867 131.173 31.188C130.604 30.88 130.151 30.4507 129.815 29.9C129.479 29.3493 129.311 28.7147 129.311 27.996C129.311 27.2773 129.479 26.6427 129.815 26.092C130.151 25.5413 130.604 25.1167 131.173 24.818C131.752 24.51 132.387 24.356 133.077 24.356C134.169 24.356 135 24.7153 135.569 25.434V24.468H137.641ZM133.511 29.844C134.09 29.844 134.561 29.676 134.925 29.34C135.299 28.9947 135.485 28.5467 135.485 27.996C135.485 27.4453 135.299 27.002 134.925 26.666C134.561 26.3207 134.09 26.148 133.511 26.148C132.933 26.148 132.457 26.3207 132.083 26.666C131.71 27.002 131.523 27.4453 131.523 27.996C131.523 28.5467 131.71 28.9947 132.083 29.34C132.457 29.676 132.933 29.844 133.511 29.844ZM142.712 24.356C143.879 24.356 144.775 24.636 145.4 25.196C146.025 25.7467 146.338 26.582 146.338 27.702V32H144.294V31.062C143.883 31.762 143.118 32.112 141.998 32.112C141.419 32.112 140.915 32.014 140.486 31.818C140.066 31.622 139.744 31.3513 139.52 31.006C139.296 30.6607 139.184 30.2687 139.184 29.83C139.184 29.13 139.445 28.5793 139.968 28.178C140.5 27.7767 141.317 27.576 142.418 27.576H144.154C144.154 27.1 144.009 26.736 143.72 26.484C143.431 26.2227 142.997 26.092 142.418 26.092C142.017 26.092 141.62 26.1573 141.228 26.288C140.845 26.4093 140.519 26.5773 140.248 26.792L139.464 25.266C139.875 24.9767 140.365 24.7527 140.934 24.594C141.513 24.4353 142.105 24.356 142.712 24.356ZM142.544 30.642C142.917 30.642 143.249 30.558 143.538 30.39C143.827 30.2127 144.033 29.956 144.154 29.62V28.85H142.656C141.76 28.85 141.312 29.144 141.312 29.732C141.312 30.012 141.419 30.236 141.634 30.404C141.858 30.5627 142.161 30.642 142.544 30.642ZM152.037 32.112C151.234 32.112 150.511 31.9487 149.867 31.622C149.232 31.286 148.733 30.824 148.369 30.236C148.014 29.648 147.837 28.9807 147.837 28.234C147.837 27.4873 148.014 26.82 148.369 26.232C148.733 25.644 149.232 25.1867 149.867 24.86C150.511 24.524 151.234 24.356 152.037 24.356C152.83 24.356 153.521 24.524 154.109 24.86C154.706 25.1867 155.14 25.658 155.411 26.274L153.717 27.184C153.325 26.4933 152.76 26.148 152.023 26.148C151.453 26.148 150.982 26.3347 150.609 26.708C150.235 27.0813 150.049 27.59 150.049 28.234C150.049 28.878 150.235 29.3867 150.609 29.76C150.982 30.1333 151.453 30.32 152.023 30.32C152.769 30.32 153.334 29.9747 153.717 29.284L155.411 30.208C155.14 30.8053 154.706 31.272 154.109 31.608C153.521 31.944 152.83 32.112 152.037 32.112ZM156.668 24.468H158.852V32H156.668V24.468ZM157.76 23.418C157.359 23.418 157.032 23.3013 156.78 23.068C156.528 22.8347 156.402 22.5453 156.402 22.2C156.402 21.8547 156.528 21.5653 156.78 21.332C157.032 21.0987 157.359 20.982 157.76 20.982C158.161 20.982 158.488 21.094 158.74 21.318C158.992 21.542 159.118 21.822 159.118 22.158C159.118 22.522 158.992 22.8253 158.74 23.068C158.488 23.3013 158.161 23.418 157.76 23.418ZM164.463 32.112C163.67 32.112 162.956 31.9487 162.321 31.622C161.696 31.286 161.206 30.824 160.851 30.236C160.496 29.648 160.319 28.9807 160.319 28.234C160.319 27.4873 160.496 26.82 160.851 26.232C161.206 25.644 161.696 25.1867 162.321 24.86C162.956 24.524 163.67 24.356 164.463 24.356C165.256 24.356 165.966 24.524 166.591 24.86C167.216 25.1867 167.706 25.644 168.061 26.232C168.416 26.82 168.593 27.4873 168.593 28.234C168.593 28.9807 168.416 29.648 168.061 30.236C167.706 30.824 167.216 31.286 166.591 31.622C165.966 31.9487 165.256 32.112 164.463 32.112ZM164.463 30.32C165.023 30.32 165.48 30.1333 165.835 29.76C166.199 29.3773 166.381 28.8687 166.381 28.234C166.381 27.5993 166.199 27.0953 165.835 26.722C165.48 26.3393 165.023 26.148 164.463 26.148C163.903 26.148 163.441 26.3393 163.077 26.722C162.713 27.0953 162.531 27.5993 162.531 28.234C162.531 28.8687 162.713 29.3773 163.077 29.76C163.441 30.1333 163.903 30.32 164.463 30.32ZM165.051 21.486H167.403L164.869 23.502H163.161L165.051 21.486ZM174.631 24.356C175.564 24.356 176.316 24.636 176.885 25.196C177.464 25.756 177.753 26.5867 177.753 27.688V32H175.569V28.024C175.569 27.4267 175.438 26.9833 175.177 26.694C174.916 26.3953 174.538 26.246 174.043 26.246C173.492 26.246 173.054 26.4187 172.727 26.764C172.4 27.1 172.237 27.604 172.237 28.276V32H170.053V24.468H172.139V25.35C172.428 25.0327 172.788 24.79 173.217 24.622C173.646 24.4447 174.118 24.356 174.631 24.356ZM88.484 41.468L85.082 49.462C84.7367 50.33 84.3073 50.9413 83.794 51.296C83.29 51.6507 82.6787 51.828 81.96 51.828C81.568 51.828 81.1807 51.7673 80.798 51.646C80.4153 51.5247 80.1027 51.3567 79.86 51.142L80.658 49.588C80.826 49.7373 81.0173 49.854 81.232 49.938C81.456 50.022 81.6753 50.064 81.89 50.064C82.1887 50.064 82.4313 49.9893 82.618 49.84C82.8047 49.7 82.9727 49.462 83.122 49.126L83.15 49.056L79.888 41.468H82.142L84.256 46.578L86.384 41.468H88.484ZM93.494 39.2H97.946C99.01 39.2 99.948 39.4053 100.76 39.816C101.581 40.2173 102.216 40.7867 102.664 41.524C103.121 42.2613 103.35 43.12 103.35 44.1C103.35 45.08 103.121 45.9387 102.664 46.676C102.216 47.4133 101.581 47.9873 100.76 48.398C99.948 48.7993 99.01 49 97.946 49H93.494V39.2ZM97.834 47.138C98.814 47.138 99.5934 46.8673 100.172 46.326C100.76 45.7753 101.054 45.0333 101.054 44.1C101.054 43.1667 100.76 42.4293 100.172 41.888C99.5934 41.3373 98.814 41.062 97.834 41.062H95.762V47.138H97.834ZM108.49 49.112C107.697 49.112 106.983 48.9487 106.348 48.622C105.723 48.286 105.233 47.824 104.878 47.236C104.524 46.648 104.346 45.9807 104.346 45.234C104.346 44.4873 104.524 43.82 104.878 43.232C105.233 42.644 105.723 42.1867 106.348 41.86C106.983 41.524 107.697 41.356 108.49 41.356C109.284 41.356 109.993 41.524 110.618 41.86C111.244 42.1867 111.734 42.644 112.088 43.232C112.443 43.82 112.62 44.4873 112.62 45.234C112.62 45.9807 112.443 46.648 112.088 47.236C111.734 47.824 111.244 48.286 110.618 48.622C109.993 48.9487 109.284 49.112 108.49 49.112ZM108.49 47.32C109.05 47.32 109.508 47.1333 109.862 46.76C110.226 46.3773 110.408 45.8687 110.408 45.234C110.408 44.5993 110.226 44.0953 109.862 43.722C109.508 43.3393 109.05 43.148 108.49 43.148C107.93 43.148 107.468 43.3393 107.104 43.722C106.74 44.0953 106.558 44.5993 106.558 45.234C106.558 45.8687 106.74 46.3773 107.104 46.76C107.468 47.1333 107.93 47.32 108.49 47.32ZM117.72 49.112C116.918 49.112 116.194 48.9487 115.55 48.622C114.916 48.286 114.416 47.824 114.052 47.236C113.698 46.648 113.52 45.9807 113.52 45.234C113.52 44.4873 113.698 43.82 114.052 43.232C114.416 42.644 114.916 42.1867 115.55 41.86C116.194 41.524 116.918 41.356 117.72 41.356C118.514 41.356 119.204 41.524 119.792 41.86C120.39 42.1867 120.824 42.658 121.094 43.274L119.4 44.184C119.008 43.4933 118.444 43.148 117.706 43.148C117.137 43.148 116.666 43.3347 116.292 43.708C115.919 44.0813 115.732 44.59 115.732 45.234C115.732 45.878 115.919 46.3867 116.292 46.76C116.666 47.1333 117.137 47.32 117.706 47.32C118.453 47.32 119.018 46.9747 119.4 46.284L121.094 47.208C120.824 47.8053 120.39 48.272 119.792 48.608C119.204 48.944 118.514 49.112 117.72 49.112ZM129.634 45.262C129.634 45.29 129.62 45.486 129.592 45.85H123.894C123.997 46.3167 124.239 46.6853 124.622 46.956C125.005 47.2267 125.481 47.362 126.05 47.362C126.442 47.362 126.787 47.306 127.086 47.194C127.394 47.0727 127.679 46.886 127.94 46.634L129.102 47.894C128.393 48.706 127.357 49.112 125.994 49.112C125.145 49.112 124.393 48.9487 123.74 48.622C123.087 48.286 122.583 47.824 122.228 47.236C121.873 46.648 121.696 45.9807 121.696 45.234C121.696 44.4967 121.869 43.834 122.214 43.246C122.569 42.6487 123.049 42.1867 123.656 41.86C124.272 41.524 124.958 41.356 125.714 41.356C126.451 41.356 127.119 41.5147 127.716 41.832C128.313 42.1493 128.78 42.6067 129.116 43.204C129.461 43.792 129.634 44.478 129.634 45.262ZM125.728 43.008C125.233 43.008 124.818 43.148 124.482 43.428C124.146 43.708 123.941 44.0907 123.866 44.576H127.576C127.501 44.1 127.296 43.722 126.96 43.442C126.624 43.1527 126.213 43.008 125.728 43.008ZM135.666 41.356C136.599 41.356 137.351 41.636 137.92 42.196C138.499 42.756 138.788 43.5867 138.788 44.688V49H136.604V45.024C136.604 44.4267 136.473 43.9833 136.212 43.694C135.951 43.3953 135.573 43.246 135.078 43.246C134.527 43.246 134.089 43.4187 133.762 43.764C133.435 44.1 133.272 44.604 133.272 45.276V49H131.088V41.468H133.174V42.35C133.463 42.0327 133.823 41.79 134.252 41.622C134.681 41.4447 135.153 41.356 135.666 41.356ZM144.49 49.112C143.687 49.112 142.964 48.9487 142.32 48.622C141.685 48.286 141.186 47.824 140.822 47.236C140.467 46.648 140.29 45.9807 140.29 45.234C140.29 44.4873 140.467 43.82 140.822 43.232C141.186 42.644 141.685 42.1867 142.32 41.86C142.964 41.524 143.687 41.356 144.49 41.356C145.283 41.356 145.974 41.524 146.562 41.86C147.159 42.1867 147.593 42.658 147.864 43.274L146.17 44.184C145.778 43.4933 145.213 43.148 144.476 43.148C143.906 43.148 143.435 43.3347 143.062 43.708C142.688 44.0813 142.502 44.59 142.502 45.234C142.502 45.878 142.688 46.3867 143.062 46.76C143.435 47.1333 143.906 47.32 144.476 47.32C145.222 47.32 145.787 46.9747 146.17 46.284L147.864 47.208C147.593 47.8053 147.159 48.272 146.562 48.608C145.974 48.944 145.283 49.112 144.49 49.112ZM149.121 41.468H151.305V49H149.121V41.468ZM150.213 40.418C149.812 40.418 149.485 40.3013 149.233 40.068C148.981 39.8347 148.855 39.5453 148.855 39.2C148.855 38.8547 148.981 38.5653 149.233 38.332C149.485 38.0987 149.812 37.982 150.213 37.982C150.615 37.982 150.941 38.094 151.193 38.318C151.445 38.542 151.571 38.822 151.571 39.158C151.571 39.522 151.445 39.8253 151.193 40.068C150.941 40.3013 150.615 40.418 150.213 40.418ZM156.37 41.356C157.537 41.356 158.433 41.636 159.058 42.196C159.684 42.7467 159.996 43.582 159.996 44.702V49H157.952V48.062C157.542 48.762 156.776 49.112 155.656 49.112C155.078 49.112 154.574 49.014 154.144 48.818C153.724 48.622 153.402 48.3513 153.178 48.006C152.954 47.6607 152.842 47.2687 152.842 46.83C152.842 46.13 153.104 45.5793 153.626 45.178C154.158 44.7767 154.975 44.576 156.076 44.576H157.812C157.812 44.1 157.668 43.736 157.378 43.484C157.089 43.2227 156.655 43.092 156.076 43.092C155.675 43.092 155.278 43.1573 154.886 43.288C154.504 43.4093 154.177 43.5773 153.906 43.792L153.122 42.266C153.533 41.9767 154.023 41.7527 154.592 41.594C155.171 41.4353 155.764 41.356 156.37 41.356ZM156.202 47.642C156.576 47.642 156.907 47.558 157.196 47.39C157.486 47.2127 157.691 46.956 157.812 46.62V45.85H156.314C155.418 45.85 154.97 46.144 154.97 46.732C154.97 47.012 155.078 47.236 155.292 47.404C155.516 47.5627 155.82 47.642 156.202 47.642ZM88.75 64.18V66H81.162V56.2H88.568V58.02H83.416V60.148H87.966V61.912H83.416V64.18H88.75ZM93.9859 66.112C93.1832 66.112 92.4599 65.9487 91.8159 65.622C91.1812 65.286 90.6819 64.824 90.3179 64.236C89.9632 63.648 89.7859 62.9807 89.7859 62.234C89.7859 61.4873 89.9632 60.82 90.3179 60.232C90.6819 59.644 91.1812 59.1867 91.8159 58.86C92.4599 58.524 93.1832 58.356 93.9859 58.356C94.7792 58.356 95.4699 58.524 96.0579 58.86C96.6552 59.1867 97.0892 59.658 97.3599 60.274L95.6659 61.184C95.2739 60.4933 94.7092 60.148 93.9719 60.148C93.4026 60.148 92.9312 60.3347 92.5579 60.708C92.1846 61.0813 91.9979 61.59 91.9979 62.234C91.9979 62.878 92.1846 63.3867 92.5579 63.76C92.9312 64.1333 93.4026 64.32 93.9719 64.32C94.7186 64.32 95.2832 63.9747 95.6659 63.284L97.3599 64.208C97.0892 64.8053 96.6552 65.272 96.0579 65.608C95.4699 65.944 94.7792 66.112 93.9859 66.112ZM102.106 66.112C101.312 66.112 100.598 65.9487 99.9637 65.622C99.3383 65.286 98.8483 64.824 98.4937 64.236C98.139 63.648 97.9617 62.9807 97.9617 62.234C97.9617 61.4873 98.139 60.82 98.4937 60.232C98.8483 59.644 99.3383 59.1867 99.9637 58.86C100.598 58.524 101.312 58.356 102.106 58.356C102.899 58.356 103.608 58.524 104.234 58.86C104.859 59.1867 105.349 59.644 105.704 60.232C106.058 60.82 106.236 61.4873 106.236 62.234C106.236 62.9807 106.058 63.648 105.704 64.236C105.349 64.824 104.859 65.286 104.234 65.622C103.608 65.9487 102.899 66.112 102.106 66.112ZM102.106 64.32C102.666 64.32 103.123 64.1333 103.478 63.76C103.842 63.3773 104.024 62.8687 104.024 62.234C104.024 61.5993 103.842 61.0953 103.478 60.722C103.123 60.3393 102.666 60.148 102.106 60.148C101.546 60.148 101.084 60.3393 100.72 60.722C100.356 61.0953 100.174 61.5993 100.174 62.234C100.174 62.8687 100.356 63.3773 100.72 63.76C101.084 64.1333 101.546 64.32 102.106 64.32ZM112.274 58.356C113.207 58.356 113.958 58.636 114.528 59.196C115.106 59.756 115.396 60.5867 115.396 61.688V66H113.212V62.024C113.212 61.4267 113.081 60.9833 112.82 60.694C112.558 60.3953 112.18 60.246 111.686 60.246C111.135 60.246 110.696 60.4187 110.37 60.764C110.043 61.1 109.88 61.604 109.88 62.276V66H107.696V58.468H109.782V59.35C110.071 59.0327 110.43 58.79 110.86 58.622C111.289 58.4447 111.76 58.356 112.274 58.356ZM121.041 66.112C120.248 66.112 119.534 65.9487 118.899 65.622C118.274 65.286 117.784 64.824 117.429 64.236C117.075 63.648 116.897 62.9807 116.897 62.234C116.897 61.4873 117.075 60.82 117.429 60.232C117.784 59.644 118.274 59.1867 118.899 58.86C119.534 58.524 120.248 58.356 121.041 58.356C121.835 58.356 122.544 58.524 123.169 58.86C123.795 59.1867 124.285 59.644 124.639 60.232C124.994 60.82 125.171 61.4873 125.171 62.234C125.171 62.9807 124.994 63.648 124.639 64.236C124.285 64.824 123.795 65.286 123.169 65.622C122.544 65.9487 121.835 66.112 121.041 66.112ZM121.041 64.32C121.601 64.32 122.059 64.1333 122.413 63.76C122.777 63.3773 122.959 62.8687 122.959 62.234C122.959 61.5993 122.777 61.0953 122.413 60.722C122.059 60.3393 121.601 60.148 121.041 60.148C120.481 60.148 120.019 60.3393 119.655 60.722C119.291 61.0953 119.109 61.5993 119.109 62.234C119.109 62.8687 119.291 63.3773 119.655 63.76C120.019 64.1333 120.481 64.32 121.041 64.32ZM121.629 55.486H123.981L121.447 57.502H119.739L121.629 55.486ZM136.277 58.356C137.22 58.356 137.966 58.636 138.517 59.196C139.077 59.7467 139.357 60.5773 139.357 61.688V66H137.173V62.024C137.173 61.4267 137.047 60.9833 136.795 60.694C136.552 60.3953 136.202 60.246 135.745 60.246C135.232 60.246 134.826 60.414 134.527 60.75C134.228 61.0767 134.079 61.5667 134.079 62.22V66H131.895V62.024C131.895 60.8387 131.419 60.246 130.467 60.246C129.963 60.246 129.562 60.414 129.263 60.75C128.964 61.0767 128.815 61.5667 128.815 62.22V66H126.631V58.468H128.717V59.336C128.997 59.0187 129.338 58.776 129.739 58.608C130.15 58.44 130.598 58.356 131.083 58.356C131.615 58.356 132.096 58.4633 132.525 58.678C132.954 58.8833 133.3 59.1867 133.561 59.588C133.869 59.196 134.256 58.8927 134.723 58.678C135.199 58.4633 135.717 58.356 136.277 58.356ZM141.315 58.468H143.499V66H141.315V58.468ZM142.407 57.418C142.005 57.418 141.679 57.3013 141.427 57.068C141.175 56.8347 141.049 56.5453 141.049 56.2C141.049 55.8547 141.175 55.5653 141.427 55.332C141.679 55.0987 142.005 54.982 142.407 54.982C142.808 54.982 143.135 55.094 143.387 55.318C143.639 55.542 143.765 55.822 143.765 56.158C143.765 56.522 143.639 56.8253 143.387 57.068C143.135 57.3013 142.808 57.418 142.407 57.418ZM149.166 66.112C148.363 66.112 147.64 65.9487 146.996 65.622C146.361 65.286 145.862 64.824 145.498 64.236C145.143 63.648 144.966 62.9807 144.966 62.234C144.966 61.4873 145.143 60.82 145.498 60.232C145.862 59.644 146.361 59.1867 146.996 58.86C147.64 58.524 148.363 58.356 149.166 58.356C149.959 58.356 150.65 58.524 151.238 58.86C151.835 59.1867 152.269 59.658 152.54 60.274L150.846 61.184C150.454 60.4933 149.889 60.148 149.152 60.148C148.582 60.148 148.111 60.3347 147.738 60.708C147.364 61.0813 147.178 61.59 147.178 62.234C147.178 62.878 147.364 63.3867 147.738 63.76C148.111 64.1333 148.582 64.32 149.152 64.32C149.898 64.32 150.463 63.9747 150.846 63.284L152.54 64.208C152.269 64.8053 151.835 65.272 151.238 65.608C150.65 65.944 149.959 66.112 149.166 66.112ZM156.835 58.356C158.002 58.356 158.898 58.636 159.523 59.196C160.148 59.7467 160.461 60.582 160.461 61.702V66H158.417V65.062C158.006 65.762 157.241 66.112 156.121 66.112C155.542 66.112 155.038 66.014 154.609 65.818C154.189 65.622 153.867 65.3513 153.643 65.006C153.419 64.6607 153.307 64.2687 153.307 63.83C153.307 63.13 153.568 62.5793 154.091 62.178C154.623 61.7767 155.44 61.576 156.541 61.576H158.277C158.277 61.1 158.132 60.736 157.843 60.484C157.554 60.2227 157.12 60.092 156.541 60.092C156.14 60.092 155.743 60.1573 155.351 60.288C154.968 60.4093 154.642 60.5773 154.371 60.792L153.587 59.266C153.998 58.9767 154.488 58.7527 155.057 58.594C155.636 58.4353 156.228 58.356 156.835 58.356ZM156.667 64.642C157.04 64.642 157.372 64.558 157.661 64.39C157.95 64.2127 158.156 63.956 158.277 63.62V62.85H156.779C155.883 62.85 155.435 63.144 155.435 63.732C155.435 64.012 155.542 64.236 155.757 64.404C155.981 64.5627 156.284 64.642 156.667 64.642ZM164.972 66.112C164.346 66.112 163.735 66.0373 163.138 65.888C162.54 65.7293 162.064 65.5333 161.71 65.3L162.438 63.732C162.774 63.9467 163.18 64.124 163.656 64.264C164.132 64.3947 164.598 64.46 165.056 64.46C165.98 64.46 166.442 64.2313 166.442 63.774C166.442 63.5593 166.316 63.4053 166.064 63.312C165.812 63.2187 165.424 63.1393 164.902 63.074C164.286 62.9807 163.777 62.8733 163.376 62.752C162.974 62.6307 162.624 62.416 162.326 62.108C162.036 61.8 161.892 61.3613 161.892 60.792C161.892 60.316 162.027 59.896 162.298 59.532C162.578 59.1587 162.979 58.8693 163.502 58.664C164.034 58.4587 164.659 58.356 165.378 58.356C165.91 58.356 166.437 58.4167 166.96 58.538C167.492 58.65 167.93 58.8087 168.276 59.014L167.548 60.568C166.885 60.1947 166.162 60.008 165.378 60.008C164.911 60.008 164.561 60.0733 164.328 60.204C164.094 60.3347 163.978 60.5027 163.978 60.708C163.978 60.9413 164.104 61.1047 164.356 61.198C164.608 61.2913 165.009 61.38 165.56 61.464C166.176 61.5667 166.68 61.6787 167.072 61.8C167.464 61.912 167.804 62.122 168.094 62.43C168.383 62.738 168.528 63.1673 168.528 63.718C168.528 64.1847 168.388 64.6 168.108 64.964C167.828 65.328 167.417 65.6127 166.876 65.818C166.344 66.014 165.709 66.112 164.972 66.112Z" fill="#245549"/>
<path d="M16.0408 70.5455L15.449 72.8485C13.8338 73.6789 11.9235 74 10.1205 74C4.36189 74 0 70.4641 0 64.9737C0 57.9832 4.84618 54.795 10.7121 54.795C12.4889 54.795 14.6415 55.25 16.2025 56.1072C15.9601 57.0185 15.7987 57.9292 15.5838 58.8671H15.2071C14.2105 57.4198 12.4889 56.4026 10.7392 56.4026C6.27238 56.4026 4.46942 60.6614 4.46942 64.5979C4.46942 69.1782 6.72958 72.393 10.8738 72.393C12.5422 72.393 14.4798 71.5365 15.6912 70.3844L16.0408 70.5455" fill="#245549"/>
<path d="M19.7207 55.2806C20.3916 55.3344 21.0648 55.3931 21.7368 55.3931C22.409 55.3931 23.081 55.3344 23.7535 55.2806V73.6345C23.081 73.581 22.409 73.5224 21.7368 73.5224C21.0648 73.5224 20.3916 73.581 19.7207 73.6345V55.2806" fill="#245549"/>
<path d="M28.52 55.2804V73.5139H36.0562C41.5788 73.5139 45.8594 69.9216 45.8594 63.876C45.8594 59.489 43.49 55.4952 37.7263 55.2804H28.52ZM32.5534 56.8401H35.1941C38.9928 56.8401 41.3898 58.8202 41.3898 63.8493C41.3898 70.109 38.5618 71.9544 34.8433 71.9544H32.5534V56.8401" fill="#245549"/>
<path d="M59.5053 55.2772C59.451 55.6495 59.3733 56.0492 59.3733 56.4215C59.3733 56.7955 59.451 57.1957 59.5053 57.568C57.8627 57.354 56.0327 57.1411 53.2886 57.1957V62.9493H56.0864C57.2987 62.9493 58.4009 62.8433 59.3968 62.7103C59.3436 63.0826 59.2384 63.4827 59.2384 63.8555C59.2384 64.2284 59.3436 64.6282 59.3968 65.0004C58.4009 64.8665 57.2987 64.7607 56.0864 64.7607H53.2886V71.6005C56.0327 71.5737 57.8627 71.4412 59.5053 71.2282C59.451 71.6005 59.3733 72.0003 59.3733 72.373C59.3733 72.7459 59.451 73.1454 59.5053 73.519H49.2554V55.2772H59.5053" fill="#245549"/>
<path d="M49.3762 41.6276H44.6589C46.4558 40.2281 48.0453 38.5811 49.3762 36.7349V41.6276ZM29.9183 41.6269L10.2002 41.5899V36.1531L29.8116 36.1792C37.0788 36.1622 42.9631 30.2911 42.9631 23.0492C42.9631 19.7423 41.7276 16.7297 39.7024 14.4205H46.5133C47.8151 16.8712 48.5556 19.7954 48.5556 22.8343C48.5556 33.0876 40.2109 41.3994 29.9183 41.6269V41.6269ZM10.2002 4.53976H14.2975C12.76 5.82948 11.3915 7.31037 10.2201 8.94231L10.2002 4.53976ZM38.2266 22.8796C38.2266 27.525 34.4447 31.2915 29.7819 31.2915C25.1182 31.2915 21.3378 27.525 21.3378 22.8796C21.3378 18.2334 25.1182 14.4674 29.7819 14.4674C34.4447 14.4674 38.2266 18.2334 38.2266 22.8796V22.8796ZM49.3745 9.92604C49.3745 9.92604 29.8411 9.91768 29.7819 9.91768C22.5014 9.91768 16.5998 15.7967 16.5998 23.0492C16.5998 26.3744 17.8509 29.4028 19.897 31.716H13.5511C12.1053 29.078 11.2868 26.0522 11.2816 22.8343C11.2652 12.6849 20.1498 4.55314 29.0104 4.53976H49.3745V9.92604ZM53.841 22.8796C53.841 19.8433 53.2881 16.9459 52.2701 14.4205H53.9328L53.8993 0.000110106H5.57915L5.54199 14.4529H7.22763C6.31783 16.9799 5.72249 20.0403 5.72249 22.8796C5.72249 25.989 6.31783 28.9602 7.40006 31.6856H5.61474V31.716H5.60059V36.3011H5.60646L5.58614 46.1518H34.672C34.7404 46.1615 34.8031 46.1544 34.8676 46.1518H53.9639L53.9448 31.6163L52.2139 31.6017C53.1891 29.0055 53.841 25.8246 53.841 22.8796" fill="#245549"/>
<path d="M29.7198 27.4297C27.2649 27.4297 25.2739 25.447 25.2739 23.0003C25.2739 20.5542 27.2649 18.5708 29.7198 18.5708C32.1759 18.5708 34.1675 20.5542 34.1675 23.0003C34.1675 25.447 32.1759 27.4297 29.7198 27.4297Z" fill="#245549"/>
</svg>
