<svg width="24" height="24" viewBox="0 0 24 24" fill="none" xmlns="http://www.w3.org/2000/svg">
<rect width="24" height="24" rx="8" fill="#245549"/>
<path d="M4.94643 18.1612C5.11676 17.9204 5.29616 17.6846 5.47613 17.4506C5.65611 17.2166 5.84289 16.9871 6.03025 16.7588C6.40495 16.3014 6.7912 15.8534 7.189 15.4149C7.98511 14.5361 8.83232 13.705 9.72622 12.9259C10.6221 12.1483 11.5498 11.3838 12.6052 10.8112C12.7352 10.7374 12.8692 10.6692 13.0026 10.6022C13.1361 10.5352 13.2683 10.4653 13.4074 10.4068L13.819 10.2268C13.9593 10.17 14.1001 10.1211 14.2403 10.0694C14.8031 9.86561 15.3873 9.72687 15.9816 9.65594C15.9884 9.65545 15.9951 9.65759 16.0004 9.66192C16.0057 9.66625 16.0091 9.67244 16.01 9.67922C16.0106 9.68487 16.0093 9.69056 16.0063 9.6954C16.0033 9.70023 15.9988 9.70393 15.9935 9.70592C15.4446 9.90992 14.9064 10.1418 14.3811 10.4006C14.2517 10.4676 14.1228 10.5341 13.9933 10.5988L13.6118 10.8078C13.4835 10.8749 13.3603 10.9527 13.2354 11.026L13.0475 11.1356C12.985 11.1719 12.9243 11.2128 12.863 11.2492C12.3673 11.5508 11.8842 11.874 11.4005 12.1989C10.9168 12.5238 10.4444 12.8691 9.98852 13.2355C9.76142 13.4172 9.53433 13.607 9.31177 13.7955C9.08922 13.9841 8.86894 14.1789 8.65263 14.3772C8.21623 14.7695 7.78986 15.1731 7.37352 15.5881C6.5378 16.4186 5.73673 17.2831 4.98731 18.1919C4.983 18.197 4.97682 18.2003 4.97013 18.2009C4.96343 18.2016 4.95675 18.1995 4.95154 18.1953C4.9466 18.1912 4.94333 18.1855 4.94238 18.1792C4.94144 18.1729 4.94288 18.1665 4.94643 18.1612Z" fill="white"/>
<path d="M6.59344 17.5671C7.29461 18.242 8.10982 18.7872 9.00122 19.1773C9.1108 19.2279 9.22434 19.2682 9.33562 19.3142C9.4469 19.3602 9.56272 19.3983 9.67626 19.4329C9.90336 19.5108 10.1361 19.571 10.3689 19.6272C10.8357 19.7302 11.3106 19.7924 11.7883 19.8129C12.2655 19.8319 12.7436 19.8065 13.2161 19.7368C13.6878 19.6714 14.152 19.5599 14.602 19.404C15.5035 19.0911 16.3418 18.6194 17.0773 18.0112C17.2595 17.8573 17.4395 17.7005 17.6093 17.5318C17.779 17.3631 17.942 17.191 18.0953 17.0047C18.406 16.6382 18.6798 16.2419 18.9128 15.8216C19.148 15.3996 19.3414 14.9555 19.4902 14.4959C19.5288 14.3823 19.56 14.2641 19.593 14.1483C19.6259 14.0324 19.6548 13.9137 19.6775 13.795L19.715 13.6166L19.7457 13.4377C19.7689 13.3184 19.7809 13.198 19.7968 13.0776C19.8206 12.8362 19.8382 12.5942 19.8393 12.3511C19.843 12.1084 19.8334 11.8657 19.8104 11.6241C19.7641 11.1406 19.6711 10.6628 19.5328 10.1972C19.4612 9.96607 19.3835 9.73603 19.2909 9.51223C19.1984 9.28844 19.0933 9.06976 18.9832 8.85506C18.7562 8.4289 18.4881 8.02598 18.1827 7.65203C17.2661 6.53533 16.0552 5.69788 14.6871 5.23462C14.2356 5.08471 13.7717 4.9756 13.3007 4.90858C12.8304 4.84508 12.3554 4.82454 11.8814 4.84724C11.4081 4.87081 10.9382 4.93928 10.4779 5.05172C10.2508 5.10852 10.0237 5.17611 9.79662 5.2545C9.56953 5.33288 9.35776 5.42035 9.14316 5.51635C8.71274 5.71331 8.30114 5.94905 7.91344 6.22067C7.13302 6.76231 6.46256 7.44735 5.93771 8.23934C5.67399 8.63555 5.44798 9.05563 5.26267 9.49406C5.16842 9.71274 5.0878 9.9371 5.01286 10.1632C4.93792 10.3892 4.8766 10.621 4.82835 10.8544C4.62614 11.7953 4.59996 12.7656 4.75113 13.716C4.90302 14.6777 5.23139 15.603 5.71969 16.4453C5.723 16.4512 5.72384 16.4582 5.72204 16.4648C5.72024 16.4714 5.71593 16.477 5.71004 16.4805C5.70457 16.4838 5.69806 16.4848 5.69183 16.4834C5.6856 16.4821 5.68013 16.4784 5.67655 16.4731C5.1042 15.659 4.70214 14.7377 4.49452 13.7643C4.38607 13.2758 4.32673 12.7776 4.31738 12.2773C4.31 12.0268 4.32079 11.7757 4.33612 11.5252C4.35145 11.2747 4.38664 11.0248 4.43263 10.7772C4.47862 10.5295 4.53426 10.2841 4.59898 10.0388C4.63588 9.91835 4.66824 9.79623 4.71253 9.67695L4.77157 9.50144L4.83856 9.32422C5.02292 8.85174 5.2512 8.39762 5.52042 7.96784C5.78998 7.53823 6.1019 7.13673 6.45151 6.76936L6.58322 6.63247L6.72005 6.50012C6.80918 6.41038 6.90684 6.32972 6.99994 6.24282C7.19354 6.07923 7.38998 5.91792 7.59834 5.77308C8.42846 5.18456 9.36499 4.76305 10.3558 4.532C10.8505 4.4189 11.3549 4.35329 11.8621 4.33604C12.3679 4.32127 12.8739 4.35302 13.3739 4.4309C13.8728 4.51058 14.3632 4.63666 14.8387 4.80748C15.3135 4.97946 15.77 5.19847 16.2013 5.46125C16.4159 5.59303 16.6241 5.73427 16.8258 5.88498C17.0251 6.03777 17.2198 6.19681 17.4032 6.36778C17.7721 6.70596 18.1082 7.07834 18.4069 7.47993C19.5974 9.09677 20.1517 11.0952 19.9643 13.0946C19.9172 13.5891 19.826 14.0784 19.6917 14.5567C19.5591 15.0371 19.3823 15.5043 19.1637 15.9522C18.7243 16.8594 18.1093 17.6702 17.3544 18.3378C17.1636 18.502 16.9689 18.6622 16.7628 18.8081C16.6617 18.8831 16.5567 18.9524 16.4511 19.0223C16.3455 19.0921 16.2399 19.1529 16.1263 19.2143C15.9083 19.3415 15.6818 19.4534 15.453 19.5602C15.2224 19.663 14.9866 19.754 14.7467 19.8328C14.2677 19.9918 13.7742 20.1036 13.2735 20.1668C12.7738 20.228 12.2695 20.2419 11.7672 20.2083C11.266 20.1737 10.7694 20.0904 10.2843 19.9595C9.80091 19.8285 9.33202 19.6489 8.88484 19.4233L8.71849 19.3387L8.55498 19.2478C8.44484 19.191 8.34038 19.1205 8.23364 19.0569C8.02585 18.9206 7.81919 18.782 7.62502 18.6275C7.23461 18.3238 6.87604 17.9813 6.55484 17.6051C6.55012 17.6002 6.54748 17.5937 6.54748 17.5869C6.54748 17.5802 6.55012 17.5736 6.55484 17.5688C6.55952 17.5646 6.56559 17.5623 6.57187 17.5623C6.57815 17.5623 6.58422 17.5646 6.5889 17.5688L6.59344 17.5671Z" fill="white"/>
<path d="M17.6593 10.2006C17.6338 10.5341 17.5249 10.8559 17.3425 11.1361C17.1676 11.4104 16.9485 11.6538 16.6941 11.8564C16.5707 11.958 16.4418 12.0529 16.308 12.1404L16.1036 12.2619C16.0696 12.2818 16.0355 12.3028 16.0015 12.3221L15.8998 12.3755C15.3622 12.668 14.8052 12.9242 14.2432 13.1628C13.6811 13.4013 13.1117 13.6069 12.5496 13.8182L12.1283 13.9756L11.7105 14.138C11.5703 14.1903 11.4346 14.2516 11.2966 14.3084L11.0894 14.3936C11.0207 14.422 10.9531 14.4533 10.885 14.4834L10.4774 14.6657L10.0765 14.8628C10.0095 14.8963 9.94142 14.9264 9.87556 14.9605L9.67799 15.0656L9.28057 15.2752C8.23423 15.8534 7.23671 16.5248 6.24544 17.2206C6.24276 17.2226 6.23969 17.224 6.23643 17.2248C6.23317 17.2256 6.22978 17.2257 6.22648 17.2251C6.22318 17.2245 6.22003 17.2233 6.21724 17.2214C6.21444 17.2195 6.21206 17.2171 6.21024 17.2143C6.20676 17.2092 6.2052 17.2031 6.20582 17.1969C6.20645 17.1908 6.20922 17.1851 6.21365 17.1808C6.43696 16.9763 6.66197 16.7734 6.88869 16.5719C7.00223 16.4697 7.12089 16.3771 7.23728 16.2794L7.59041 15.992C7.82602 15.8006 8.07469 15.625 8.31882 15.4427C8.37957 15.3967 8.44202 15.3541 8.50561 15.3115L8.69523 15.1814C8.82127 15.0957 8.94787 15.011 9.07618 14.9275C10.1111 14.2767 11.2099 13.7337 12.3554 13.307C12.9232 13.0889 13.4864 12.8833 14.0433 12.668C14.1824 12.6112 14.3198 12.5544 14.4583 12.4976C14.527 12.4692 14.5969 12.4408 14.665 12.4124L14.8688 12.3216C15.0039 12.2596 15.1425 12.2045 15.2759 12.1387L15.6778 11.9444L15.7783 11.8956C15.8107 11.8785 15.8414 11.8609 15.8731 11.8439L16.0611 11.7399C16.1786 11.661 16.3035 11.5894 16.4125 11.4997C16.6378 11.3333 16.8361 11.1333 17.0007 10.9067C17.0398 10.8499 17.0733 10.7931 17.1108 10.7334C17.1483 10.6738 17.1676 10.6113 17.2017 10.5505C17.2357 10.4898 17.2482 10.4239 17.2709 10.3597L17.2931 10.262C17.3019 10.2296 17.3084 10.1965 17.3124 10.1631C17.3504 9.8949 17.3038 9.62145 17.1789 9.38101C17.04 9.13723 16.8352 8.9376 16.5879 8.80506C16.5567 8.78859 16.5266 8.76928 16.4943 8.75394L16.3949 8.71191C16.3614 8.69827 16.329 8.68294 16.295 8.67101L16.1911 8.6392L16.0866 8.60796L15.9799 8.59263C15.9084 8.57671 15.8359 8.56533 15.763 8.55855L15.654 8.54775C15.6175 8.54275 15.5807 8.54028 15.5439 8.54037H15.323C14.8252 8.55264 14.2462 8.71891 14.0189 8.80052C13.4574 9.00329 12.9368 9.30092 12.4389 9.63264C11.9443 9.96524 11.4689 10.3255 11.015 10.7118C9.18746 12.2403 7.61766 14.0721 6.29881 16.0902C6.29702 16.0931 6.29468 16.0955 6.29193 16.0975C6.28917 16.0994 6.28606 16.1007 6.28277 16.1014C6.27949 16.1021 6.2761 16.1021 6.2728 16.1015C6.26951 16.1008 6.26638 16.0995 6.26361 16.0976C6.25856 16.0943 6.25483 16.0893 6.25307 16.0835C6.25131 16.0777 6.25162 16.0714 6.25396 16.0658C6.4999 15.5102 6.78643 14.9735 7.11124 14.4601C7.27172 14.2014 7.43958 13.9476 7.61482 13.6984L7.62428 13.6852C7.79826 13.4419 7.97251 13.1983 8.16099 12.9651C8.35288 12.7277 8.54535 12.4914 8.74576 12.2608C8.94617 12.0302 9.15567 11.8064 9.37027 11.5917C9.79908 11.1544 10.2596 10.7494 10.7482 10.3801C11.2383 10.0122 11.7546 9.68059 12.293 9.38783C12.8269 9.08985 13.3867 8.84081 13.9655 8.64375C14.2573 8.5495 14.5556 8.47698 14.858 8.42677L14.9716 8.40746C15.009 8.40121 15.0477 8.39951 15.0851 8.39553C15.1618 8.38928 15.2384 8.38019 15.3122 8.37565L15.5439 8.37281C15.5827 8.37168 15.6215 8.37282 15.6602 8.37622L15.7738 8.3836C15.8515 8.38761 15.9289 8.39671 16.0054 8.41087L16.119 8.42904L16.2325 8.45801L16.3461 8.48641C16.3841 8.4972 16.4204 8.51197 16.4596 8.52503L16.5732 8.5648C16.6101 8.57956 16.6453 8.59887 16.681 8.61535C16.9778 8.75252 17.2311 8.96866 17.4134 9.24015C17.5941 9.52657 17.6801 9.8626 17.6593 10.2006Z" fill="white"/>
<path d="M4.94643 18.1612L4.74226 18.0168L4.73879 18.022L4.94643 18.1612ZM6.03025 16.7588L6.22351 16.9174L6.22364 16.9172L6.03025 16.7588ZM7.189 15.4149L7.37416 15.5829L7.37428 15.5827L7.189 15.4149ZM9.72622 12.9259L9.56235 12.7371L9.56197 12.7374L9.72622 12.9259ZM12.6052 10.8112L12.7245 11.031L12.7287 11.0286L12.6052 10.8112ZM13.4074 10.4068L13.5044 10.6373L13.5076 10.6359L13.4074 10.4068ZM13.819 10.2268L13.7252 9.99498L13.7189 9.99773L13.819 10.2268ZM14.2403 10.0694L14.1552 9.83438L14.1538 9.83487L14.2403 10.0694ZM15.9816 9.65594L15.9636 9.4063L15.9519 9.4077L15.9816 9.65594ZM16.01 9.67922L16.2585 9.65233L16.258 9.64797L16.01 9.67922ZM15.9935 9.70592L16.0806 9.94026L16.081 9.94012L15.9935 9.70592ZM14.3811 10.4006L14.2706 10.1763L14.2662 10.1786L14.3811 10.4006ZM13.9933 10.5988L13.8814 10.3751L13.8732 10.3796L13.9933 10.5988ZM13.6118 10.8078L13.7276 11.0295L13.7319 11.0271L13.6118 10.8078ZM13.2354 11.026L13.3614 11.2419L13.3619 11.2416L13.2354 11.026ZM13.0475 11.1356L13.1733 11.3516L13.1735 11.3515L13.0475 11.1356ZM12.863 11.2492L12.7355 11.0341L12.733 11.0356L12.863 11.2492ZM9.98852 13.2355L10.1447 13.4307L10.1451 13.4304L9.98852 13.2355ZM8.65263 14.3772L8.81977 14.5631L8.82154 14.5615L8.65263 14.3772ZM7.37352 15.5881L7.54973 15.7655L7.55001 15.7652L7.37352 15.5881ZM4.98731 18.1919L5.1792 18.3521L5.18019 18.3509L4.98731 18.1919ZM4.95154 18.1953L5.10973 18.0017L5.1092 18.0012L4.95154 18.1953ZM17.6593 10.2006L17.9086 10.2196L17.9088 10.216L17.6593 10.2006ZM17.3425 11.1361L17.1329 10.9998L17.1317 11.0017L17.3425 11.1361ZM16.6941 11.8564L16.5383 11.6608L16.5351 11.6634L16.6941 11.8564ZM16.308 12.1404L16.4359 12.3554L16.4449 12.3496L16.308 12.1404ZM16.1036 12.2619L16.2297 12.4778L16.2314 12.4768L16.1036 12.2619ZM16.0015 12.3221L16.1178 12.5436L16.1248 12.5396L16.0015 12.3221ZM15.8998 12.3755L15.7835 12.1542L15.7804 12.1559L15.8998 12.3755ZM14.2432 13.1628L14.1455 12.9326L14.1455 12.9326L14.2432 13.1628ZM12.5496 13.8182L12.6371 14.0524L12.6376 14.0522L12.5496 13.8182ZM12.1283 13.9756L12.0409 13.7414L12.0378 13.7426L12.1283 13.9756ZM11.7105 14.138L11.7978 14.3723L11.8011 14.371L11.7105 14.138ZM11.2966 14.3084L11.3917 14.5396L11.3918 14.5396L11.2966 14.3084ZM11.0894 14.3936L10.9943 14.1624L10.9939 14.1626L11.0894 14.3936ZM10.885 14.4834L10.784 14.2547L10.7829 14.2552L10.885 14.4834ZM10.4774 14.6657L10.3752 14.4373L10.367 14.4414L10.4774 14.6657ZM10.0765 14.8628L9.96622 14.6384L9.96469 14.6392L10.0765 14.8628ZM9.87556 14.9605L9.76065 14.7384L9.75817 14.7398L9.87556 14.9605ZM9.67799 15.0656L9.79461 15.2867L9.79538 15.2863L9.67799 15.0656ZM9.28057 15.2752L9.16392 15.054L9.15965 15.0563L9.28057 15.2752ZM6.24544 17.2206L6.10173 17.0158L6.09492 17.021L6.24544 17.2206ZM6.23643 17.2248L6.17815 16.9817L6.17815 16.9817L6.23643 17.2248ZM6.21024 17.2143L6.42032 17.0786L6.41672 17.0734L6.21024 17.2143ZM6.21365 17.1808L6.04475 16.9964L6.03975 17.0012L6.21365 17.1808ZM6.88869 16.5719L7.05475 16.7588L7.05597 16.7577L6.88869 16.5719ZM7.23728 16.2794L7.07945 16.0855L7.07655 16.0879L7.23728 16.2794ZM7.59041 15.992L7.43277 15.7979L7.4326 15.7981L7.59041 15.992ZM8.31882 15.4427L8.46842 15.643L8.46976 15.642L8.31882 15.4427ZM8.50561 15.3115L8.64476 15.5192L8.64702 15.5177L8.50561 15.3115ZM8.69523 15.1814L8.55458 14.9748L8.55382 14.9753L8.69523 15.1814ZM9.07618 14.9275L8.94307 14.7159L8.93983 14.718L9.07618 14.9275ZM12.3554 13.307L12.4427 13.5413L12.4451 13.5404L12.3554 13.307ZM14.0433 12.668L14.1335 12.9013L14.1378 12.8995L14.0433 12.668ZM14.4583 12.4976L14.5532 12.7289L14.5539 12.7287L14.4583 12.4976ZM14.665 12.4124L14.7612 12.6433L14.7668 12.6408L14.665 12.4124ZM14.8688 12.3216L14.9706 12.5499L14.973 12.5488L14.8688 12.3216ZM15.2759 12.1387L15.1671 11.9136L15.1652 11.9145L15.2759 12.1387ZM15.6778 11.9444L15.7866 12.1695L15.7871 12.1692L15.6778 11.9444ZM15.7783 11.8956L15.8877 12.1205L15.8948 12.1168L15.7783 11.8956ZM15.8731 11.8439L15.9913 12.0642L15.9941 12.0626L15.8731 11.8439ZM16.0611 11.7399L16.1821 11.9587L16.1915 11.9535L16.2005 11.9474L16.0611 11.7399ZM16.4125 11.4997L16.2638 11.2983L16.2536 11.3067L16.4125 11.4997ZM17.0007 10.9067L17.203 11.0536L17.2065 11.0486L17.0007 10.9067ZM17.2709 10.3597L17.5066 10.4431L17.5115 10.4292L17.5147 10.4149L17.2709 10.3597ZM17.2931 10.262L17.0517 10.1958L17.0492 10.2067L17.2931 10.262ZM17.3124 10.1631L17.0648 10.128L17.0641 10.1337L17.3124 10.1631ZM17.1789 9.38101L17.401 9.26572L17.3961 9.25723L17.1789 9.38101ZM16.5879 8.80506L16.7061 8.58472L16.7046 8.58394L16.5879 8.80506ZM16.4943 8.75394L16.6014 8.52782L16.5917 8.5237L16.4943 8.75394ZM16.3949 8.71191L16.4923 8.48164L16.4891 8.48035L16.3949 8.71191ZM16.295 8.67101L16.3777 8.43487L16.3682 8.43196L16.295 8.67101ZM16.1911 8.6392L16.2643 8.40015L16.2627 8.39968L16.1911 8.6392ZM16.0866 8.60796L16.1582 8.36844L16.1405 8.36314L16.1222 8.3605L16.0866 8.60796ZM15.9799 8.59263L15.9256 8.83666L15.9349 8.83873L15.9443 8.84009L15.9799 8.59263ZM15.763 8.55855L15.7384 8.80734L15.7399 8.80747L15.763 8.55855ZM15.654 8.54775L15.62 8.79561L15.6294 8.79654L15.654 8.54775ZM15.5439 8.54037L15.5439 8.79037L15.5444 8.79037L15.5439 8.54037ZM15.323 8.54037L15.323 8.2903L15.3168 8.29045L15.323 8.54037ZM14.0189 8.80052L13.9344 8.56522L13.934 8.56538L14.0189 8.80052ZM12.4389 9.63264L12.3003 9.42458L12.2994 9.42518L12.4389 9.63264ZM11.015 10.7118L11.1754 10.9036L11.177 10.9022L11.015 10.7118ZM6.29881 16.0902L6.0895 15.9535L6.08703 15.9574L6.29881 16.0902ZM6.26361 16.0976L6.40418 15.8909L6.40203 15.8894L6.26361 16.0976ZM6.25396 16.0658L6.0253 15.9646L6.02316 15.9697L6.25396 16.0658ZM7.11124 14.4601L7.32252 14.5937L7.32367 14.5919L7.11124 14.4601ZM7.61482 13.6984L7.41147 13.5529L7.41034 13.5546L7.61482 13.6984ZM7.62428 13.6852L7.42093 13.5397L7.42093 13.5397L7.62428 13.6852ZM8.16099 12.9651L8.35542 13.1222L8.35542 13.1222L8.16099 12.9651ZM9.37027 11.5917L9.5471 11.7684L9.54877 11.7667L9.37027 11.5917ZM10.7482 10.3801L10.5981 10.1802L10.5974 10.1807L10.7482 10.3801ZM12.293 9.38783L12.4124 9.60747L12.4148 9.60613L12.293 9.38783ZM13.9655 8.64375L13.8887 8.40582L13.885 8.40709L13.9655 8.64375ZM14.858 8.42677L14.899 8.6734L14.8999 8.67323L14.858 8.42677ZM14.9716 8.40746L14.9305 8.16086L14.9297 8.161L14.9716 8.40746ZM15.0851 8.39553L15.0648 8.14628L15.0587 8.14693L15.0851 8.39553ZM15.3122 8.37565L15.3092 8.12537L15.2969 8.12612L15.3122 8.37565ZM15.5439 8.37281L15.5469 8.62283L15.5511 8.62271L15.5439 8.37281ZM15.6602 8.37622L15.6384 8.62532L15.644 8.62569L15.6602 8.37622ZM15.7738 8.3836L15.7576 8.6331L15.7609 8.63327L15.7738 8.3836ZM16.0054 8.41087L15.96 8.65677L15.9659 8.65772L16.0054 8.41087ZM16.119 8.42904L16.1808 8.1868L16.1697 8.18399L16.1585 8.18219L16.119 8.42904ZM16.2325 8.45801L16.1707 8.70025L16.1719 8.70054L16.2325 8.45801ZM16.3461 8.48641L16.4143 8.24578L16.4067 8.24388L16.3461 8.48641ZM16.4596 8.52503L16.5423 8.28906L16.5387 8.28787L16.4596 8.52503ZM16.5732 8.5648L16.6661 8.33247L16.6558 8.32884L16.5732 8.5648ZM16.681 8.61535L16.7859 8.38842L16.7856 8.38827L16.681 8.61535ZM17.4134 9.24015L17.625 9.10672L17.621 9.1008L17.4134 9.24015ZM6.59344 17.5671L6.76681 17.3869L6.65323 17.2776L6.50562 17.333L6.59344 17.5671ZM9.00122 19.1773L9.10597 18.9503L9.10147 18.9483L9.00122 19.1773ZM9.67626 19.4329L9.75735 19.1963L9.74923 19.1938L9.67626 19.4329ZM10.3689 19.6272L10.3102 19.8703L10.315 19.8713L10.3689 19.6272ZM11.7883 19.8129L11.7775 20.0627L11.7783 20.0627L11.7883 19.8129ZM13.2161 19.7368L13.1818 19.4892L13.1797 19.4895L13.2161 19.7368ZM14.602 19.404L14.6838 19.6402L14.6839 19.6402L14.602 19.404ZM17.0773 18.0112L17.2366 18.2039L17.2386 18.2022L17.0773 18.0112ZM18.0953 17.0047L17.9045 16.8431L17.9022 16.8459L18.0953 17.0047ZM18.9128 15.8216L18.6944 15.6999L18.6941 15.7004L18.9128 15.8216ZM19.4902 14.4959L19.2535 14.4154L19.2523 14.4189L19.4902 14.4959ZM19.6775 13.795L19.4328 13.7436L19.432 13.748L19.6775 13.795ZM19.715 13.6166L19.9598 13.668L19.9614 13.6588L19.715 13.6166ZM19.7457 13.4377L19.5002 13.3898L19.4993 13.3955L19.7457 13.4377ZM19.7968 13.0776L20.0448 13.1103L20.0456 13.1022L19.7968 13.0776ZM19.8393 12.3511L19.5894 12.3473L19.5894 12.3499L19.8393 12.3511ZM19.8104 11.6241L20.0593 11.6004L20.0593 11.6002L19.8104 11.6241ZM19.5328 10.1972L19.7724 10.126L19.7716 10.1233L19.5328 10.1972ZM18.9832 8.85506L19.2057 8.74093L19.2038 8.73752L18.9832 8.85506ZM18.1827 7.65203L18.3763 7.4939L18.3759 7.49342L18.1827 7.65203ZM14.6871 5.23462L14.7673 4.99782L14.7659 4.99735L14.6871 5.23462ZM13.3007 4.90858L13.3359 4.66107L13.3342 4.66083L13.3007 4.90858ZM11.8814 4.84724L11.8694 4.59753L11.8689 4.59755L11.8814 4.84724ZM10.4779 5.05172L10.4186 4.80886L10.4173 4.80919L10.4779 5.05172ZM9.14316 5.51635L9.04108 5.28813L9.03913 5.28902L9.14316 5.51635ZM7.91344 6.22067L8.05598 6.42605L8.05688 6.42542L7.91344 6.22067ZM5.93771 8.23934L6.14582 8.37787L6.1461 8.37745L5.93771 8.23934ZM5.26267 9.49406L5.49226 9.593L5.49294 9.59139L5.26267 9.49406ZM4.82835 10.8544L5.07277 10.907L5.07317 10.905L4.82835 10.8544ZM4.75113 13.716L4.99807 13.677L4.99803 13.6767L4.75113 13.716ZM5.71969 16.4453L5.93842 16.3241L5.93597 16.3199L5.71969 16.4453ZM5.71004 16.4805L5.58372 16.2647L5.5815 16.266L5.71004 16.4805ZM5.67655 16.4731L5.88333 16.3325L5.88106 16.3293L5.67655 16.4731ZM4.49452 13.7643L4.73902 13.7121L4.73857 13.7101L4.49452 13.7643ZM4.31738 12.2773L4.56735 12.2726L4.56727 12.2699L4.31738 12.2773ZM4.59898 10.0388L4.35977 9.96546L4.35725 9.97501L4.59898 10.0388ZM4.71253 9.67695L4.94701 9.76401L4.94948 9.75667L4.71253 9.67695ZM4.77157 9.50144L4.53756 9.41298L4.53462 9.42173L4.77157 9.50144ZM4.83856 9.32422L4.60565 9.23335L4.60472 9.23582L4.83856 9.32422ZM5.52042 7.96784L5.30865 7.83497L5.30855 7.83513L5.52042 7.96784ZM6.45151 6.76936L6.27136 6.59601L6.27041 6.59701L6.45151 6.76936ZM6.58322 6.63247L6.4093 6.45266L6.40308 6.45913L6.58322 6.63247ZM6.72005 6.50012L6.89389 6.67985L6.89743 6.6763L6.72005 6.50012ZM6.99994 6.24282L6.83839 6.05163L6.82936 6.06006L6.99994 6.24282ZM7.59834 5.77308L7.74104 5.97837L7.74293 5.97703L7.59834 5.77308ZM10.3558 4.532L10.3001 4.28829L10.2991 4.28853L10.3558 4.532ZM11.8621 4.33604L11.8548 4.08614L11.8536 4.08618L11.8621 4.33604ZM13.3739 4.4309L13.4134 4.18402L13.4124 4.18387L13.3739 4.4309ZM14.8387 4.80748L14.9238 4.57242L14.9232 4.5722L14.8387 4.80748ZM16.2013 5.46125L16.3321 5.24821L16.3314 5.24776L16.2013 5.46125ZM16.8258 5.88498L16.9779 5.68657L16.9754 5.6847L16.8258 5.88498ZM17.4032 6.36778L17.2327 6.55064L17.2343 6.55207L17.4032 6.36778ZM18.4069 7.47993L18.6083 7.3317L18.6075 7.33071L18.4069 7.47993ZM19.9643 13.0946L20.2131 13.1183L20.2132 13.118L19.9643 13.0946ZM19.6917 14.5567L19.451 14.4891L19.4508 14.4901L19.6917 14.5567ZM19.1637 15.9522L18.9391 15.8426L18.9388 15.8432L19.1637 15.9522ZM17.3544 18.3378L17.5174 18.5274L17.52 18.5251L17.3544 18.3378ZM16.7628 18.8081L16.6182 18.6041L16.6138 18.6074L16.7628 18.8081ZM16.1263 19.2143L16.0074 18.9942L16.0003 18.9983L16.1263 19.2143ZM15.453 19.5602L15.5548 19.7885L15.5587 19.7867L15.453 19.5602ZM14.7467 19.8328L14.6687 19.5953L14.668 19.5955L14.7467 19.8328ZM13.2735 20.1668L13.3039 20.4149L13.3047 20.4148L13.2735 20.1668ZM11.7672 20.2083L11.75 20.4577L11.7505 20.4577L11.7672 20.2083ZM10.2843 19.9595L10.2189 20.2008L10.2192 20.2008L10.2843 19.9595ZM8.88484 19.4233L8.77147 19.6461L8.77224 19.6465L8.88484 19.4233ZM8.71849 19.3387L8.59695 19.5573L8.60513 19.5615L8.71849 19.3387ZM8.55498 19.2478L8.67649 19.0292L8.66957 19.0256L8.55498 19.2478ZM8.23364 19.0569L8.09638 19.2662L8.10565 19.2717L8.23364 19.0569ZM7.62502 18.6275L7.78069 18.4319L7.77851 18.4302L7.62502 18.6275ZM6.55484 17.6051L6.74496 17.4428L6.7399 17.4368L6.73447 17.4312L6.55484 17.6051ZM6.54748 17.5869L6.29748 17.5869L6.54748 17.5869ZM6.55484 17.5688L6.38813 17.3825L6.38144 17.3884L6.3752 17.3949L6.55484 17.5688ZM6.5889 17.5688L6.42219 17.7551L6.535 17.856L6.67673 17.8028L6.5889 17.5688ZM5.15055 18.3055C5.31777 18.0691 5.49455 17.8368 5.67431 17.603L5.27796 17.2982C5.09777 17.5325 4.91574 17.7716 4.74232 18.0168L5.15055 18.3055ZM5.67431 17.603C5.8517 17.3724 6.03634 17.1455 6.22351 16.9174L5.83698 16.6002C5.64945 16.8288 5.46052 17.0608 5.27796 17.2982L5.67431 17.603ZM6.22364 16.9172C6.59568 16.463 6.97919 16.0183 7.37416 15.5829L7.00384 15.2469C6.60322 15.6885 6.21422 16.1397 5.83685 16.6004L6.22364 16.9172ZM7.37428 15.5827C8.1638 14.7112 9.00399 13.887 9.89048 13.1144L9.56197 12.7374C8.66066 13.523 7.80643 14.3609 7.00372 15.2471L7.37428 15.5827ZM9.89009 13.1147C10.7848 12.3381 11.6949 11.5895 12.7244 11.031L12.486 10.5915C11.4047 11.1781 10.4594 11.9585 9.56235 12.7371L9.89009 13.1147ZM12.7287 11.0286C12.8526 10.9582 12.9816 10.8926 13.1149 10.8256L12.8904 10.3788C12.7569 10.4459 12.6178 10.5166 12.4818 10.5939L12.7287 11.0286ZM13.1149 10.8256C13.2545 10.7555 13.3754 10.6915 13.5044 10.6373L13.3105 10.1764C13.1613 10.2392 13.0176 10.3149 12.8904 10.3788L13.1149 10.8256ZM13.5076 10.6359L13.9192 10.4558L13.7189 9.99773L13.3072 10.1778L13.5076 10.6359ZM13.9129 10.4585C14.0483 10.4037 14.1806 10.3579 14.3268 10.304L14.1538 9.83487C14.0196 9.88436 13.8703 9.93629 13.7252 9.99506L13.9129 10.4585ZM14.3255 10.3045C14.8703 10.1072 15.4359 9.97284 16.0112 9.90417L15.9519 9.4077C15.3387 9.48089 14.7359 9.62405 14.1552 9.83438L14.3255 10.3045ZM15.9995 9.90529C15.9424 9.90939 15.886 9.89145 15.8418 9.8552L16.159 9.46864C16.1042 9.42372 16.0343 9.4015 15.9636 9.40658L15.9995 9.90529ZM15.8418 9.8552C15.7977 9.81896 15.7691 9.76716 15.7619 9.71048L16.258 9.64797C16.2491 9.57773 16.2137 9.51355 16.159 9.46864L15.8418 9.8552ZM15.7614 9.70611C15.756 9.65656 15.7673 9.60661 15.7935 9.56416L16.2191 9.82663C16.2512 9.77451 16.2651 9.71319 16.2585 9.65234L15.7614 9.70611ZM15.7935 9.56416C15.8197 9.52172 15.8593 9.48918 15.906 9.47172L16.081 9.94012C16.1383 9.91868 16.1869 9.87875 16.2191 9.82663L15.7935 9.56416ZM15.9064 9.47158C15.3495 9.67854 14.8036 9.91376 14.2706 10.1763L14.4916 10.6248C15.0093 10.3698 15.5396 10.1413 16.0806 9.94026L15.9064 9.47158ZM14.2662 10.1786C14.1368 10.2456 14.0093 10.3113 13.8815 10.3752L14.1052 10.8224C14.2363 10.7568 14.3665 10.6897 14.4961 10.6226L14.2662 10.1786ZM13.8732 10.3796L13.4917 10.5886L13.7319 11.0271L14.1135 10.8181L13.8732 10.3796ZM13.4961 10.5863C13.3606 10.657 13.2242 10.7427 13.1089 10.8103L13.3619 11.2416C13.4964 11.1627 13.6064 11.0927 13.7276 11.0294L13.4961 10.5863ZM13.1094 10.81L12.9215 10.9196L13.1735 11.3515L13.3614 11.2419L13.1094 10.81ZM12.9217 10.9195C12.8862 10.9402 12.852 10.9617 12.8216 10.9808C12.7899 11.0008 12.7626 11.018 12.7355 11.0341L12.9905 11.4642C13.0247 11.444 13.0584 11.4226 13.0881 11.4039C13.1189 11.3845 13.1463 11.3673 13.1733 11.3516L12.9217 10.9195ZM12.733 11.0356C12.2319 11.3405 11.7444 11.6667 11.2611 11.9913L11.5399 12.4064C12.024 12.0812 12.5027 11.761 12.9929 11.4627L12.733 11.0356ZM11.2611 11.9913C10.7719 12.3199 10.2937 12.6695 9.83192 13.0406L10.1451 13.4304C10.5951 13.0687 11.0617 12.7276 11.5399 12.4064L11.2611 11.9913ZM9.8323 13.0403C9.60258 13.2242 9.37348 13.4156 9.15016 13.6048L9.47339 13.9863C9.69518 13.7983 9.92026 13.6103 10.1447 13.4307L9.8323 13.0403ZM9.15016 13.6048C8.92491 13.7957 8.70219 13.9926 8.48372 14.1929L8.82154 14.5615C9.03569 14.3652 9.25354 14.1726 9.47339 13.9863L9.15016 13.6048ZM8.4855 14.1912C8.04589 14.5864 7.6164 14.993 7.19702 15.4111L7.55001 15.7652C7.96331 15.3532 8.38656 14.9525 8.81976 14.5631L8.4855 14.1912ZM7.1973 15.4108C6.35676 16.246 5.54994 17.1166 4.79443 18.0328L5.18019 18.3509C5.92351 17.4495 6.71885 16.5911 7.54973 15.7655L7.1973 15.4108ZM4.79542 18.0316C4.8333 17.9863 4.88755 17.9576 4.94641 17.952L4.99384 18.4498C5.0661 18.4429 5.1327 18.4078 5.1792 18.3521L4.79542 18.0316ZM4.94641 17.952C5.00527 17.9464 5.06396 17.9643 5.10973 18.0017L4.79335 18.3889C4.84955 18.4348 4.92159 18.4567 4.99384 18.4498L4.94641 17.952ZM5.1092 18.0012C5.15265 18.0365 5.18132 18.0868 5.18962 18.1421L4.69515 18.2163C4.70534 18.2842 4.74055 18.3459 4.79389 18.3893L5.1092 18.0012ZM5.18962 18.1421C5.19792 18.1975 5.18525 18.2539 5.15407 18.3004L4.73879 18.022C4.70052 18.079 4.68496 18.1483 4.69515 18.2163L5.18962 18.1421ZM17.41 10.1816C17.3877 10.4733 17.2925 10.7547 17.1329 10.9998L17.552 11.2725C17.7573 10.9571 17.8799 10.595 17.9085 10.2196L17.41 10.1816ZM17.1317 11.0017C16.9716 11.2527 16.7711 11.4754 16.5384 11.6608L16.8498 12.0519C17.1258 11.8321 17.3635 11.5681 17.5532 11.2705L17.1317 11.0017ZM16.5351 11.6634C16.4188 11.7593 16.2973 11.8487 16.1712 11.9311L16.4449 12.3496C16.5864 12.2571 16.7226 12.1568 16.8531 12.0493L16.5351 11.6634ZM16.1802 11.9255L15.9759 12.047L16.2314 12.4768L16.4358 12.3552L16.1802 11.9255ZM15.9776 12.046C15.9344 12.0712 15.9124 12.0852 15.8782 12.1046L16.1248 12.5396C16.1586 12.5204 16.2047 12.4924 16.2297 12.4778L15.9776 12.046ZM15.8852 12.1008L15.7836 12.1542L16.0161 12.5968L16.1177 12.5434L15.8852 12.1008ZM15.7804 12.1559C15.2523 12.4432 14.7033 12.6959 14.1455 12.9326L14.3408 13.3929C14.9072 13.1525 15.4721 12.8928 16.0193 12.5951L15.7804 12.1559ZM14.1455 12.9326C13.5897 13.1685 13.0278 13.3714 12.4616 13.5842L12.6376 14.0522C13.1955 13.8425 13.7725 13.6341 14.3408 13.3929L14.1455 12.9326ZM12.4621 13.584L12.0409 13.7414L12.2158 14.2098L12.6371 14.0524L12.4621 13.584ZM12.0378 13.7426L11.6199 13.905L11.8011 14.371L12.2189 14.2086L12.0378 13.7426ZM11.6232 13.9038C11.4783 13.9577 11.3283 14.025 11.2014 14.0772L11.3918 14.5396C11.5409 14.4782 11.6622 14.4228 11.7978 14.3723L11.6232 13.9038ZM11.2015 14.0772L10.9943 14.1624L11.1844 14.6248L11.3917 14.5396L11.2015 14.0772ZM10.9939 14.1626C10.9215 14.1925 10.8468 14.2269 10.784 14.2547L10.986 14.712C11.0595 14.6796 11.1198 14.6516 11.1849 14.6247L10.9939 14.1626ZM10.7829 14.2552L10.3753 14.4375L10.5794 14.8939L10.9871 14.7116L10.7829 14.2552ZM10.367 14.4414L9.96622 14.6384L10.1869 15.0871L10.5877 14.89L10.367 14.4414ZM9.96469 14.6392C9.92105 14.661 9.8195 14.708 9.76066 14.7385L9.99046 15.1825C10.0633 15.1448 10.098 15.1316 10.1884 15.0864L9.96469 14.6392ZM9.75817 14.7398L9.56059 14.8448L9.79538 15.2863L9.99295 15.1812L9.75817 14.7398ZM9.56136 14.8444L9.16395 15.054L9.39719 15.4963L9.79461 15.2867L9.56136 14.8444ZM9.15965 15.0563C8.10128 15.6412 7.09495 16.3188 6.10181 17.0159L6.38907 17.4252C7.37847 16.7307 8.36718 16.0655 9.40149 15.494L9.15965 15.0563ZM6.09492 17.021C6.11964 17.0023 6.14797 16.9889 6.17815 16.9817L6.29471 17.4679C6.33142 17.4591 6.36588 17.4429 6.39596 17.4202L6.09492 17.021ZM6.17815 16.9817C6.20831 16.9745 6.23964 16.9735 6.27019 16.979L6.18277 17.4713C6.21993 17.4779 6.25803 17.4767 6.29471 17.4679L6.17815 16.9817ZM6.27019 16.979C6.3007 16.9844 6.32978 16.996 6.3556 17.0132L6.07887 17.4296C6.11028 17.4505 6.14565 17.4647 6.18277 17.4713L6.27019 16.979ZM6.3556 17.0132C6.38145 17.0304 6.40345 17.0527 6.42025 17.0787L6.00023 17.3499C6.02067 17.3816 6.04743 17.4087 6.07887 17.4296L6.3556 17.0132ZM6.41672 17.0734C6.44648 17.117 6.45988 17.1697 6.45454 17.2222L5.95711 17.1717C5.95052 17.2364 5.96704 17.3015 6.00375 17.3553L6.41672 17.0734ZM6.45454 17.2222C6.4492 17.2747 6.42548 17.3237 6.38754 17.3604L6.03975 17.0012C5.99296 17.0465 5.96369 17.1069 5.95711 17.1717L6.45454 17.2222ZM6.38248 17.3652C6.60487 17.1615 6.82896 16.9594 7.05474 16.7588L6.72263 16.385C6.49498 16.5873 6.26904 16.7911 6.04481 16.9964L6.38248 17.3652ZM7.05597 16.7577C7.16579 16.6588 7.272 16.5766 7.39801 16.4709L7.07655 16.0879C6.96978 16.1775 6.83867 16.2805 6.7214 16.3861L7.05597 16.7577ZM7.39509 16.4733L7.74822 16.1859L7.4326 15.7981L7.07947 16.0855L7.39509 16.4733ZM7.74805 16.186C7.97845 15.9988 8.21702 15.8308 8.46842 15.643L8.16922 15.2424C7.93236 15.4193 7.67359 15.6023 7.43277 15.7979L7.74805 16.186ZM8.46976 15.642C8.52441 15.6006 8.58183 15.5614 8.64475 15.5192L8.36646 15.1038C8.30221 15.1469 8.23473 15.1928 8.16788 15.2434L8.46976 15.642ZM8.64702 15.5177L8.83664 15.3876L8.55382 14.9753L8.36419 15.1054L8.64702 15.5177ZM8.83588 15.3881C8.96079 15.3031 9.08594 15.2195 9.21254 15.1371L8.93983 14.718C8.80981 14.8026 8.68175 14.8882 8.55458 14.9748L8.83588 15.3881ZM9.20928 15.1392C10.2297 14.4974 11.3132 13.962 12.4427 13.5413L12.2682 13.0728C11.1066 13.5054 9.99243 14.056 8.94309 14.7159L9.20928 15.1392ZM12.4451 13.5404C12.9983 13.3279 13.5856 13.113 14.1335 12.9012L13.9532 12.4348C13.3872 12.6536 12.8481 12.85 12.2658 13.0737L12.4451 13.5404ZM14.1378 12.8995C14.2769 12.8427 14.4158 12.7853 14.5532 12.7289L14.3635 12.2663C14.2238 12.3236 14.0879 12.3798 13.9488 12.4366L14.1378 12.8995ZM14.5539 12.7287C14.6203 12.7012 14.6931 12.6716 14.7612 12.6432L14.5688 12.1817C14.5006 12.2101 14.4338 12.2373 14.3628 12.2666L14.5539 12.7287ZM14.7668 12.6408L14.9706 12.5499L14.767 12.0932L14.5632 12.1841L14.7668 12.6408ZM14.973 12.5488C15.0891 12.4956 15.2523 12.4291 15.3866 12.3628L15.1652 11.9145C15.0327 11.98 14.9188 12.0237 14.7647 12.0943L14.973 12.5488ZM15.3847 12.3637L15.7866 12.1695L15.5691 11.7193L15.1671 11.9136L15.3847 12.3637ZM15.7871 12.1692L15.8876 12.1204L15.669 11.6707L15.5685 11.7196L15.7871 12.1692ZM15.8948 12.1168C15.9219 12.1025 15.9743 12.0733 15.9912 12.0642L15.755 11.6235C15.7084 11.6485 15.6995 11.6545 15.6619 11.6743L15.8948 12.1168ZM15.9941 12.0626L16.1821 11.9587L15.9401 11.5212L15.7521 11.6251L15.9941 12.0626ZM16.2005 11.9474C16.2975 11.8822 16.4502 11.7924 16.5714 11.6927L16.2536 11.3067C16.1567 11.3864 16.0596 11.4397 15.9217 11.5324L16.2005 11.9474ZM16.561 11.7008C16.8069 11.5192 17.0234 11.3009 17.203 11.0535L16.7984 10.7598C16.6489 10.9657 16.4686 11.1474 16.264 11.2986L16.561 11.7008ZM17.2065 11.0486C17.2497 10.986 17.2898 10.9184 17.3225 10.8664L16.8991 10.6004C16.8568 10.6677 16.83 10.7138 16.7949 10.7647L17.2065 11.0486ZM17.3225 10.8664C17.3513 10.8206 17.3715 10.7762 17.3856 10.7448C17.4014 10.7096 17.4095 10.6911 17.4197 10.6728L16.9836 10.4283C16.9598 10.4708 16.9412 10.5139 16.9294 10.54C16.916 10.57 16.9078 10.5866 16.8991 10.6004L17.3225 10.8664ZM17.4197 10.6728C17.4489 10.6206 17.4666 10.5704 17.4788 10.5322C17.494 10.4843 17.4963 10.4721 17.5066 10.4431L17.0352 10.2763C17.0228 10.3115 17.0075 10.3643 17.0023 10.3805C16.994 10.4066 16.9884 10.4196 16.9836 10.4283L17.4197 10.6728ZM17.5147 10.4149L17.5369 10.3172L17.0492 10.2067L17.0271 10.3044L17.5147 10.4149ZM17.5342 10.3281C17.5463 10.2837 17.5552 10.2384 17.5606 10.1926L17.0641 10.1337C17.0616 10.1547 17.0576 10.1755 17.052 10.1959L17.5342 10.3281ZM17.5599 10.1983C17.6053 9.87847 17.5497 9.55246 17.4008 9.26581L16.9571 9.49622C17.0579 9.69043 17.0956 9.91132 17.0648 10.128L17.5599 10.1983ZM17.3961 9.25723C17.2339 8.97259 16.9948 8.73949 16.706 8.58472L16.4698 9.0254C16.6756 9.13571 16.8461 9.30186 16.9617 9.50479L17.3961 9.25723ZM16.7046 8.58394C16.6936 8.57816 16.6839 8.57244 16.6652 8.56179C16.6488 8.55247 16.6264 8.53992 16.6013 8.52802L16.3872 8.97985C16.3945 8.9833 16.4033 8.98807 16.4179 8.99635C16.4301 9.00331 16.451 9.01549 16.4713 9.02618L16.7046 8.58394ZM16.5917 8.5237L16.4923 8.48166L16.2975 8.94215L16.3968 8.98418L16.5917 8.5237ZM16.4891 8.48035C16.4743 8.47432 16.418 8.44919 16.3776 8.43506L16.2124 8.90696C16.2401 8.91668 16.2485 8.92223 16.3007 8.94347L16.4891 8.48035ZM16.3682 8.43196L16.2643 8.40015L16.1179 8.87825L16.2218 8.91006L16.3682 8.43196ZM16.2627 8.39968L16.1582 8.36844L16.015 8.84748L16.1195 8.87872L16.2627 8.39968ZM16.1222 8.3605L16.0154 8.34517L15.9443 8.84009L16.0511 8.85542L16.1222 8.3605ZM16.0342 8.3486C15.9524 8.3304 15.8696 8.31738 15.7862 8.30962L15.7399 8.80747C15.8023 8.81328 15.8643 8.82303 15.9256 8.83666L16.0342 8.3486ZM15.7876 8.30976L15.6786 8.29897L15.6294 8.79654L15.7384 8.80733L15.7876 8.30976ZM15.6879 8.30007C15.64 8.2935 15.5917 8.29026 15.5433 8.29037L15.5444 8.79037C15.5697 8.79031 15.595 8.792 15.62 8.79544L15.6879 8.30007ZM15.5439 8.29037H15.323V8.79037H15.5439V8.29037ZM13.934 8.56538C13.3462 8.77766 12.8068 9.08714 12.3003 9.42458L12.5775 9.84069C13.0668 9.5147 13.5687 9.22892 14.1038 9.03565L13.934 8.56538ZM12.2994 9.42518C11.797 9.76304 11.3141 10.129 10.853 10.5214L11.177 10.9022C11.6238 10.522 12.0916 10.1674 12.5784 9.84009L12.2994 9.42518ZM10.8546 10.5201C9.00577 12.0664 7.42007 13.9175 6.08953 15.9535L6.50808 16.227C7.81526 14.2268 9.36915 12.4143 11.1754 10.9036L10.8546 10.5201ZM6.08703 15.9574C6.10309 15.9318 6.12416 15.9097 6.14898 15.8924L6.43487 16.3026C6.4652 16.2814 6.49095 16.2544 6.51058 16.2231L6.08703 15.9574ZM6.14898 15.8924C6.17378 15.8751 6.20183 15.863 6.23146 15.8567L6.33409 16.3461C6.37029 16.3385 6.40457 16.3237 6.43487 16.3026L6.14898 15.8924ZM6.23146 15.8567C6.26107 15.8505 6.29163 15.8504 6.32131 15.8562L6.2243 16.3467C6.26057 16.3539 6.29791 16.3537 6.33409 16.3461L6.23146 15.8567ZM6.32131 15.8562C6.35095 15.8621 6.37913 15.8739 6.40417 15.8909L6.12304 16.3044C6.15363 16.3252 6.18808 16.3396 6.2243 16.3467L6.32131 15.8562ZM6.40203 15.8894C6.44532 15.9182 6.47722 15.9612 6.4923 16.0109L6.01384 16.156C6.03244 16.2173 6.07179 16.2703 6.12519 16.3058L6.40203 15.8894ZM6.4923 16.0109C6.50738 16.0606 6.50471 16.114 6.48475 16.1619L6.02316 15.9697C5.99853 16.0289 5.99524 16.0947 6.01384 16.156L6.4923 16.0109ZM6.48256 16.167C6.72353 15.6227 7.00427 15.0968 7.32251 14.5937L6.89997 14.3264C6.56859 14.8503 6.27626 15.3978 6.02535 15.9646L6.48256 16.167ZM7.32367 14.5919C7.48162 14.3373 7.64683 14.0875 7.81931 13.8422L7.41034 13.5546C7.23233 13.8077 7.06183 14.0656 6.89881 14.3283L7.32367 14.5919ZM7.81817 13.8438L7.82762 13.8306L7.42093 13.5397L7.41148 13.553L7.81817 13.8438ZM7.82762 13.8306C8.00232 13.5864 8.17234 13.3488 8.35542 13.1222L7.96656 12.808C7.77268 13.0478 7.59421 13.2975 7.42093 13.5397L7.82762 13.8306ZM8.35542 13.1222C8.54721 12.885 8.73723 12.6517 8.93446 12.4248L8.55706 12.0968C8.35346 12.3311 8.15856 12.5704 7.96655 12.808L8.35542 13.1222ZM8.93446 12.4248C9.13084 12.1988 9.33635 11.9792 9.54709 11.7684L9.19345 11.4149C8.97498 11.6335 8.7615 11.8615 8.55706 12.0968L8.93446 12.4248ZM9.54877 11.7667C9.96895 11.3382 10.4202 10.9414 10.8989 10.5796L10.5974 10.1807C10.099 10.5574 9.62921 10.9705 9.19177 11.4166L9.54877 11.7667ZM10.8982 10.5801C11.3787 10.2195 11.8847 9.89441 12.4124 9.60746L12.1736 9.1682C11.6245 9.46677 11.098 9.80499 10.5981 10.1802L10.8982 10.5801ZM12.4148 9.60613C12.9356 9.3155 13.4816 9.07261 14.0461 8.88041L13.885 8.40709C13.2919 8.60901 12.7183 8.86419 12.1712 9.16952L12.4148 9.60613ZM14.0424 8.88164C14.3224 8.79119 14.6087 8.72158 14.899 8.6734L14.8171 8.18015C14.5025 8.23237 14.1922 8.30782 13.8887 8.40585L14.0424 8.88164ZM14.8999 8.67323L15.0135 8.65392L14.9297 8.161L14.8161 8.18031L14.8999 8.67323ZM15.0127 8.65405C15.0419 8.64919 15.0518 8.65047 15.1115 8.64414L15.0587 8.14693C15.0435 8.14855 14.9762 8.15323 14.9305 8.16086L15.0127 8.65405ZM15.1054 8.6447C15.1977 8.63718 15.2539 8.62971 15.3276 8.62518L15.2969 8.12612C15.2229 8.13068 15.1259 8.14138 15.0648 8.14636L15.1054 8.6447ZM15.3153 8.62563L15.5469 8.62279L15.5408 8.12283L15.3092 8.12567L15.3153 8.62563ZM15.5511 8.62271C15.5802 8.62186 15.6094 8.62271 15.6384 8.62526L15.6821 8.12718C15.6337 8.12293 15.5851 8.12151 15.5366 8.12292L15.5511 8.62271ZM15.644 8.62569L15.7576 8.63308L15.79 8.13413L15.6765 8.12675L15.644 8.62569ZM15.7609 8.63327C15.8277 8.63671 15.8942 8.64454 15.96 8.6567L16.0509 8.16503C15.9636 8.14889 15.8753 8.1385 15.7867 8.13393L15.7609 8.63327ZM15.9659 8.65772L16.0795 8.6759L16.1585 8.18219L16.0449 8.16401L15.9659 8.65772ZM16.0572 8.67128L16.1707 8.70025L16.2943 8.21577L16.1808 8.1868L16.0572 8.67128ZM16.1719 8.70054L16.2854 8.72894L16.4067 8.24388L16.2932 8.21548L16.1719 8.70054ZM16.2778 8.72692C16.3115 8.73647 16.3184 8.74149 16.3805 8.76219L16.5387 8.28787C16.5224 8.28245 16.4567 8.25793 16.4143 8.2459L16.2778 8.72692ZM16.377 8.76099L16.4905 8.80075L16.6558 8.32884L16.5422 8.28908L16.377 8.76099ZM16.4803 8.7969C16.5124 8.80977 16.5162 8.81467 16.5765 8.84242L16.7856 8.38827C16.7743 8.38308 16.7077 8.34936 16.6661 8.33269L16.4803 8.7969ZM16.5761 8.84228C16.8313 8.96021 17.0491 9.14605 17.2059 9.3795L17.621 9.1008C17.4132 8.79127 17.1243 8.54482 16.7859 8.38842L16.5761 8.84228ZM17.202 9.37352C17.3546 9.61557 17.4273 9.89956 17.4097 10.1853L17.9088 10.216C17.9328 9.82563 17.8335 9.43756 17.6249 9.10677L17.202 9.37352ZM14.1034 9.03581C14.319 8.95839 14.8694 8.80163 15.3292 8.7903L15.3168 8.29045C14.781 8.30365 14.1734 8.47943 13.9344 8.56522L14.1034 9.03581ZM6.42007 17.7472C7.14253 18.4426 7.98249 19.0043 8.90098 19.4064L9.10147 18.9483C8.23714 18.57 7.44669 18.0413 6.76681 17.3869L6.42007 17.7472ZM8.89649 19.4043C9.01038 19.4569 9.14626 19.5065 9.2401 19.5453L9.43114 19.0832C9.30243 19.03 9.21121 18.9989 9.10595 18.9503L8.89649 19.4043ZM9.2401 19.5453C9.36229 19.5958 9.48694 19.6365 9.6033 19.6721L9.74923 19.1938C9.63849 19.16 9.5315 19.1247 9.43114 19.0832L9.2401 19.5453ZM9.59522 19.6694C9.83368 19.7512 10.0756 19.8135 10.3102 19.8702L10.4276 19.3842C10.1966 19.3284 9.97304 19.2704 9.7573 19.1964L9.59522 19.6694ZM10.315 19.8713C10.796 19.9775 11.2854 20.0415 11.7775 20.0627L11.799 19.5632C11.3359 19.5432 10.8754 19.483 10.4228 19.3831L10.315 19.8713ZM11.7783 20.0627C12.2711 20.0824 12.7646 20.0561 13.2526 19.9841L13.1797 19.4895C12.7225 19.5569 12.26 19.5815 11.7982 19.5631L11.7783 20.0627ZM13.2505 19.9845C13.7383 19.9168 14.2184 19.8015 14.6838 19.6402L14.5201 19.1678C14.0855 19.3184 13.6373 19.426 13.1818 19.4892L13.2505 19.9845ZM14.6839 19.6402C15.6136 19.3175 16.4781 18.8311 17.2366 18.2039L16.918 17.8186C16.2055 18.4078 15.3933 18.8647 14.52 19.1678L14.6839 19.6402ZM17.2386 18.2022C17.4223 18.0471 17.6084 17.8851 17.7855 17.7092L17.433 17.3545C17.2706 17.516 17.0968 17.6675 16.916 17.8202L17.2386 18.2022ZM17.7855 17.7092C17.9587 17.5371 18.1279 17.3586 18.2883 17.1636L17.9022 16.8459C17.7561 17.0235 17.5994 17.1892 17.433 17.3545L17.7855 17.7092ZM18.286 17.1664C18.6073 16.7873 18.8905 16.3775 19.1315 15.9428L18.6941 15.7004C18.4691 16.1063 18.2047 16.4891 17.9046 16.8431L18.286 17.1664ZM19.1312 15.9433C19.3743 15.507 19.5742 15.048 19.728 14.5729L19.2523 14.4189C19.1085 14.863 18.9217 15.2921 18.6944 15.6999L19.1312 15.9433ZM19.7269 14.5763C19.7682 14.4548 19.8022 14.3263 19.8334 14.2166L19.3525 14.0799C19.3178 14.2019 19.2894 14.3098 19.2535 14.4154L19.7269 14.5763ZM19.8334 14.2166C19.8681 14.0947 19.8988 13.9688 19.9231 13.8419L19.432 13.748C19.4109 13.8585 19.3837 13.9701 19.3525 14.0799L19.8334 14.2166ZM19.9222 13.8464L19.9597 13.668L19.4704 13.5652L19.4329 13.7436L19.9222 13.8464ZM19.9614 13.6588L19.9921 13.4799L19.4993 13.3955L19.4686 13.5744L19.9614 13.6588ZM19.991 13.4856C20.0163 13.3562 20.0301 13.22 20.0446 13.1103L19.5489 13.0449C19.5316 13.176 19.5216 13.2806 19.5003 13.3898L19.991 13.4856ZM20.0456 13.1022C20.0698 12.8568 20.0882 12.6063 20.0893 12.3523L19.5894 12.3499C19.5883 12.5821 19.5714 12.8155 19.548 13.053L20.0456 13.1022ZM20.0893 12.3549C20.0931 12.103 20.0831 11.8512 20.0593 11.6004L19.5615 11.6477C19.5836 11.8802 19.5929 12.1138 19.5894 12.3473L20.0893 12.3549ZM20.0593 11.6002C20.0114 11.1007 19.9154 10.607 19.7724 10.126L19.2931 10.2685C19.4269 10.7185 19.5168 11.1805 19.5615 11.6479L20.0593 11.6002ZM19.7716 10.1233C19.6989 9.88839 19.6186 9.65034 19.5219 9.4167L19.0599 9.60777C19.1484 9.82172 19.2236 10.0437 19.2939 10.2711L19.7716 10.1233ZM19.5219 9.4167C19.4259 9.18454 19.3177 8.95935 19.2056 8.74095L18.7608 8.96917C18.869 9.18017 18.9708 9.39234 19.0599 9.60777L19.5219 9.4167ZM19.2038 8.73752C18.9692 8.29699 18.692 7.88047 18.3763 7.4939L17.9891 7.81016C18.2841 8.17149 18.5432 8.56082 18.7626 8.97259L19.2038 8.73752ZM18.3759 7.49342C17.4297 6.34062 16.1796 5.47607 14.7673 4.99783L14.6069 5.47141C15.9307 5.91968 17.1025 6.73004 17.9894 7.81064L18.3759 7.49342ZM14.7659 4.99735C14.3002 4.84274 13.8217 4.7302 13.3359 4.66108L13.2655 5.15609C13.7216 5.221 14.1711 5.32669 14.6083 5.47188L14.7659 4.99735ZM13.3342 4.66083C12.8488 4.59529 12.3586 4.5741 11.8694 4.59753L11.8933 5.09695C12.3521 5.07498 12.812 5.09486 13.2672 5.15634L13.3342 4.66083ZM11.8689 4.59755C11.3799 4.62191 10.8943 4.69266 10.4186 4.80886L10.5372 5.29458C10.9822 5.18589 11.4364 5.11971 11.8938 5.09693L11.8689 4.59755ZM10.4173 4.80919C10.1829 4.8678 9.94885 4.93748 9.71506 5.01818L9.87819 5.49082C10.0986 5.41474 10.3187 5.34924 10.5386 5.29425L10.4173 4.80919ZM9.71506 5.01818C9.47891 5.09969 9.26001 5.19021 9.04108 5.28813L9.24524 5.74456C9.45551 5.6505 9.66015 5.56608 9.87819 5.49082L9.71506 5.01818ZM9.03913 5.28902C8.59492 5.49229 8.17012 5.7356 7.76999 6.01591L8.05688 6.42542C8.43215 6.16251 8.83057 5.93432 9.24718 5.74367L9.03913 5.28902ZM7.77089 6.01529C6.96446 6.57499 6.27166 7.28286 5.72931 8.10124L6.1461 8.37745C6.65347 7.61184 7.30158 6.94964 8.05598 6.42605L7.77089 6.01529ZM5.72959 8.10082C5.45721 8.51004 5.22379 8.9439 5.03239 9.39672L5.49294 9.59139C5.67218 9.16735 5.89076 8.76107 6.14582 8.37787L5.72959 8.10082ZM5.03308 9.39511C4.93488 9.62298 4.8517 9.85482 4.77556 10.0845L5.25016 10.2418C5.3239 10.0194 5.40197 9.8025 5.49225 9.593L5.03308 9.39511ZM4.77556 10.0845C4.6974 10.3203 4.63363 10.5614 4.58352 10.8038L5.07317 10.905C5.11958 10.6805 5.17844 10.4582 5.25016 10.2418L4.77556 10.0845ZM4.58393 10.8019C4.37523 11.773 4.34821 12.7743 4.50424 13.7553L4.99803 13.6767C4.8517 12.7568 4.87704 11.8177 5.07276 10.9069L4.58393 10.8019ZM4.50419 13.755C4.66088 14.7472 4.99966 15.7018 5.50342 16.5706L5.93597 16.3199C5.46313 15.5043 5.14515 14.6083 4.99807 13.677L4.50419 13.755ZM5.50101 16.5664C5.47269 16.5153 5.46548 16.4551 5.48093 16.3987L5.96315 16.5309C5.9822 16.4614 5.97332 16.3872 5.93838 16.3241L5.50101 16.5664ZM5.48093 16.3987C5.49638 16.3424 5.53326 16.2943 5.58373 16.2647L5.83636 16.6962C5.8986 16.6598 5.94409 16.6004 5.96315 16.5309L5.48093 16.3987ZM5.5815 16.266C5.63076 16.2365 5.68949 16.2269 5.74565 16.2393L5.63801 16.7276C5.70663 16.7427 5.77839 16.731 5.83859 16.6949L5.5815 16.266ZM5.74565 16.2393C5.80178 16.2517 5.85102 16.2851 5.8833 16.3325L5.46979 16.6136C5.50924 16.6717 5.56942 16.7125 5.63801 16.7276L5.74565 16.2393ZM5.88106 16.3293C5.32807 15.5428 4.93962 14.6526 4.73901 13.7121L4.25002 13.8164C4.46467 14.8227 4.88032 15.7753 5.47203 16.6169L5.88106 16.3293ZM4.73857 13.7101C4.63374 13.2378 4.57637 12.7563 4.56734 12.2726L4.06742 12.2819C4.07708 12.7989 4.1384 13.3137 4.25046 13.8185L4.73857 13.7101ZM4.56727 12.2699C4.56023 12.0308 4.57046 11.7887 4.58565 11.5405L4.08658 11.51C4.07111 11.7628 4.05977 12.0227 4.06749 12.2846L4.56727 12.2699ZM4.58565 11.5405C4.60019 11.3029 4.63373 11.0635 4.67843 10.8228L4.18683 10.7315C4.13956 10.9861 4.1027 11.2465 4.08658 11.51L4.58565 11.5405ZM4.67843 10.8228C4.72322 10.5816 4.77747 10.3423 4.84071 10.1025L4.35725 9.97501C4.29105 10.226 4.23402 10.4774 4.18683 10.7315L4.67843 10.8228ZM4.83801 10.112C4.87867 9.97934 4.90594 9.87427 4.9469 9.76397L4.47816 9.58994C4.43054 9.71819 4.3931 9.85737 4.35995 9.96552L4.83801 10.112ZM4.94948 9.75667L5.00852 9.58116L4.53462 9.42173L4.47558 9.59724L4.94948 9.75667ZM5.00542 9.58984L5.07241 9.41263L4.60472 9.23582L4.53772 9.41304L5.00542 9.58984ZM5.07146 9.4151C5.25013 8.95719 5.47138 8.51707 5.73229 8.10055L5.30855 7.83513C5.03103 8.27817 4.7957 8.7463 4.60567 9.23335L5.07146 9.4151ZM5.73218 8.10071C5.99287 7.68525 6.29452 7.29697 6.63261 6.9417L6.27041 6.59701C5.90929 6.97648 5.58709 7.39121 5.30865 7.83497L5.73218 8.10071ZM6.63166 6.9427L6.76337 6.80581L6.40308 6.45913L6.27136 6.59602L6.63166 6.9427ZM6.75703 6.81216L6.89386 6.67982L6.54624 6.32043L6.40941 6.45277L6.75703 6.81216ZM6.89743 6.6763C6.9848 6.58832 7.05987 6.52886 7.17053 6.42558L6.82936 6.06006C6.7538 6.13059 6.63357 6.23243 6.54267 6.32395L6.89743 6.6763ZM7.1613 6.43378C7.35386 6.27107 7.54285 6.11613 7.74104 5.97836L7.45565 5.56781C7.23711 5.71972 7.03323 5.8874 6.83859 6.05186L7.1613 6.43378ZM7.74293 5.97703C8.54662 5.40724 9.45332 4.99916 10.4126 4.77547L10.2991 4.28853C9.27665 4.52694 8.3103 4.96187 7.45375 5.56914L7.74293 5.97703ZM10.4116 4.77571C10.8908 4.66616 11.3793 4.6026 11.8706 4.58589L11.8536 4.08618C11.3305 4.10397 10.8103 4.17165 10.3001 4.28829L10.4116 4.77571ZM11.8694 4.58593C12.3598 4.57161 12.8506 4.6024 13.3355 4.67792L13.4124 4.18387C12.8973 4.10364 12.3759 4.07093 11.8548 4.08615L11.8694 4.58593ZM13.3345 4.67777C13.8181 4.755 14.2933 4.87719 14.7542 5.04276L14.9232 4.5722C14.4331 4.39612 13.9276 4.26617 13.4134 4.18402L13.3345 4.67777ZM14.7536 5.04254C15.2127 5.20884 15.6541 5.42063 16.0712 5.67474L16.3314 5.24776C15.8858 4.97631 15.4143 4.75007 14.9238 4.57242L14.7536 5.04254ZM16.0705 5.67429C16.2786 5.8021 16.4805 5.93909 16.6762 6.08526L16.9754 5.6847C16.7676 5.52945 16.5532 5.38395 16.3321 5.24821L16.0705 5.67429ZM16.6737 6.08337C16.8691 6.23322 17.0571 6.38695 17.2327 6.55064L17.5737 6.18492C17.3825 6.00668 17.181 5.84232 16.9779 5.68658L16.6737 6.08337ZM17.2343 6.55207C17.5915 6.87958 17.917 7.24022 18.2064 7.62914L18.6075 7.33071C18.2994 6.91646 17.9527 6.53234 17.5721 6.18349L17.2343 6.55207ZM18.2056 7.62815C19.3597 9.19558 19.8971 11.133 19.7153 13.0713L20.2132 13.118C20.4063 11.0575 19.8351 8.99796 18.6083 7.3317L18.2056 7.62815ZM19.7154 13.0709C19.6697 13.5506 19.5813 14.0252 19.451 14.4891L19.9324 14.6242C20.0707 14.1316 20.1647 13.6276 20.2131 13.1183L19.7154 13.0709ZM19.4508 14.4901C19.3222 14.9557 19.1509 15.4085 18.9391 15.8426L19.3884 16.0619C19.6138 15.6001 19.796 15.1185 19.9327 14.6232L19.4508 14.4901ZM18.9388 15.8432C18.5137 16.7206 17.9189 17.5049 17.1887 18.1506L17.52 18.5251C18.2997 17.8356 18.9349 16.9981 19.3887 16.0612L18.9388 15.8432ZM17.1913 18.1483C17.0029 18.3104 16.815 18.4648 16.6183 18.6041L16.9073 19.0121C17.1227 18.8595 17.3243 18.6936 17.5174 18.5273L17.1913 18.1483ZM16.6138 18.6074C16.5192 18.6776 16.42 18.7431 16.3131 18.8138L16.589 19.2308C16.6934 19.1617 16.8043 19.0886 16.9117 19.0089L16.6138 18.6074ZM16.3131 18.8138C16.216 18.8781 16.1174 18.935 16.0075 18.9943L16.2452 19.4342C16.3624 19.3709 16.475 19.3062 16.589 19.2308L16.3131 18.8138ZM16.0003 18.9983C15.7919 19.12 15.5732 19.2282 15.3473 19.3336L15.5587 19.7867C15.7904 19.6786 16.0248 19.563 16.2524 19.4302L16.0003 18.9983ZM15.3512 19.3318C15.1283 19.4312 14.9005 19.5191 14.6687 19.5953L14.8248 20.0703C15.0727 19.9889 15.3164 19.8948 15.5548 19.7885L15.3512 19.3318ZM14.668 19.5955C14.2044 19.7494 13.7268 19.8576 13.2422 19.9188L13.3047 20.4148C13.8216 20.3497 14.331 20.2342 14.8255 20.0701L14.668 19.5955ZM13.2431 19.9187C12.759 19.9779 12.2705 19.9914 11.7839 19.9588L11.7505 20.4577C12.2685 20.4924 12.7886 20.4781 13.3039 20.4149L13.2431 19.9187ZM11.7844 19.9589C11.2994 19.9254 10.8188 19.8448 10.3494 19.7181L10.2192 20.2008C10.7199 20.336 11.2326 20.422 11.75 20.4577L11.7844 19.9589ZM10.3497 19.7182C9.88259 19.5916 9.42953 19.4181 8.99744 19.2001L8.77224 19.6465C9.23451 19.8797 9.71922 20.0654 10.2189 20.2008L10.3497 19.7182ZM8.9982 19.2005L8.83185 19.1158L8.60513 19.5615L8.77147 19.6461L8.9982 19.2005ZM8.83994 19.1201L8.67644 19.0293L8.43353 19.4663L8.59703 19.5572L8.83994 19.1201ZM8.66957 19.0256C8.56771 18.9731 8.48531 18.9159 8.36164 18.8422L8.10565 19.2717C8.19544 19.3252 8.32196 19.4089 8.44039 19.47L8.66957 19.0256ZM8.37077 18.8479C8.16341 18.7119 7.96513 18.5787 7.78068 18.4319L7.46937 18.8231C7.67325 18.9854 7.88829 19.1294 8.09651 19.266L8.37077 18.8479ZM7.77851 18.4302C7.40147 18.1369 7.05517 17.8061 6.74496 17.4428L6.36472 17.7675C6.69692 18.1565 7.06776 18.5108 7.47154 18.8249L7.77851 18.4302ZM6.73447 17.4312C6.77489 17.473 6.79748 17.5288 6.79748 17.5869L6.29748 17.5869C6.29748 17.6586 6.32535 17.7275 6.3752 17.779L6.73447 17.4312ZM6.79748 17.5869C6.79748 17.645 6.7749 17.7009 6.73447 17.7426L6.3752 17.3949C6.32534 17.4464 6.29748 17.5153 6.29748 17.5869L6.79748 17.5869ZM6.72155 17.7551C6.68042 17.7919 6.62714 17.8123 6.57187 17.8123V17.3123C6.50403 17.3123 6.43862 17.3373 6.38813 17.3825L6.72155 17.7551ZM6.57187 17.8123C6.5166 17.8123 6.46332 17.7919 6.42219 17.7551L6.75561 17.3825C6.70512 17.3373 6.63971 17.3123 6.57187 17.3123V17.8123ZM6.67673 17.8028L6.68127 17.8011L6.50562 17.333L6.50108 17.3347L6.67673 17.8028Z" fill="white"/>
</svg>
