<svg width="24" height="24" viewBox="0 0 24 24" fill="none" xmlns="http://www.w3.org/2000/svg">
<rect width="24" height="24" rx="8" fill="#245549"/>
<path d="M4.94643 18.1612C5.11676 17.9203 5.29616 17.6846 5.47613 17.4506C5.65611 17.2166 5.84289 16.9871 6.03025 16.7588C6.40495 16.3013 6.7912 15.8534 7.189 15.4149C7.98511 14.5361 8.83232 13.705 9.72622 12.9259C10.6221 12.1483 11.5498 11.3838 12.6052 10.8112C12.7352 10.7374 12.8692 10.6692 13.0026 10.6022C13.1361 10.5352 13.2683 10.4653 13.4074 10.4068L13.819 10.2268C13.9593 10.17 14.1001 10.1211 14.2403 10.0694C14.8031 9.86559 15.3873 9.72685 15.9816 9.65592C15.9884 9.65543 15.9951 9.65757 16.0004 9.6619C16.0057 9.66624 16.0091 9.67243 16.01 9.67921C16.0106 9.68486 16.0093 9.69055 16.0063 9.69538C16.0033 9.70022 15.9988 9.70392 15.9935 9.7059C15.4446 9.9099 14.9064 10.1418 14.3811 10.4006C14.2517 10.4676 14.1228 10.534 13.9933 10.5988L13.6118 10.8078C13.4835 10.8749 13.3603 10.9527 13.2354 11.0259L13.0475 11.1356C12.985 11.1719 12.9243 11.2128 12.863 11.2492C12.3673 11.5508 11.8842 11.874 11.4005 12.1989C10.9168 12.5238 10.4444 12.8691 9.98852 13.2355C9.76142 13.4172 9.53433 13.6069 9.31177 13.7955C9.08922 13.9841 8.86894 14.1789 8.65263 14.3771C8.21623 14.7694 7.78986 15.1731 7.37352 15.5881C6.5378 16.4185 5.73673 17.283 4.98731 18.1918C4.983 18.197 4.97682 18.2003 4.97013 18.2009C4.96343 18.2015 4.95675 18.1995 4.95154 18.1952C4.9466 18.1912 4.94333 18.1855 4.94238 18.1792C4.94144 18.1729 4.94288 18.1665 4.94643 18.1612Z" fill="white"/>
<path d="M6.59344 17.567C7.29461 18.2419 8.10982 18.7871 9.00122 19.1773C9.1108 19.2279 9.22434 19.2682 9.33562 19.3142C9.4469 19.3602 9.56272 19.3983 9.67626 19.4329C9.90336 19.5107 10.1361 19.5709 10.3689 19.6272C10.8357 19.7302 11.3106 19.7924 11.7883 19.8129C12.2655 19.8319 12.7436 19.8065 13.2161 19.7368C13.6878 19.6714 14.152 19.5599 14.602 19.404C15.5035 19.0911 16.3418 18.6194 17.0773 18.0112C17.2595 17.8573 17.4395 17.7005 17.6093 17.5318C17.779 17.3631 17.942 17.191 18.0953 17.0047C18.406 16.6382 18.6798 16.2419 18.9128 15.8216C19.148 15.3995 19.3414 14.9555 19.4902 14.4959C19.5288 14.3823 19.56 14.2641 19.593 14.1482C19.6259 14.0324 19.6548 13.9137 19.6775 13.7949L19.715 13.6166L19.7457 13.4377C19.7689 13.3184 19.7809 13.198 19.7968 13.0776C19.8206 12.8362 19.8382 12.5942 19.8393 12.3511C19.843 12.1084 19.8334 11.8657 19.8104 11.624C19.7641 11.1406 19.6711 10.6628 19.5328 10.1972C19.4612 9.96605 19.3835 9.73601 19.2909 9.51222C19.1984 9.28843 19.0933 9.06975 18.9832 8.85504C18.7562 8.42889 18.4881 8.02596 18.1827 7.65201C17.2661 6.53531 16.0552 5.69786 14.6871 5.2346C14.2356 5.0847 13.7717 4.97558 13.3007 4.90857C12.8304 4.84506 12.3554 4.82453 11.8814 4.84723C11.4081 4.87079 10.9382 4.93926 10.4779 5.05171C10.2508 5.10851 10.0237 5.1761 9.79662 5.25448C9.56953 5.33287 9.35776 5.42034 9.14316 5.51633C8.71274 5.71329 8.30114 5.94904 7.91344 6.22065C7.13302 6.7623 6.46256 7.44733 5.93771 8.23933C5.67399 8.63554 5.44798 9.05561 5.26267 9.49404C5.16842 9.71272 5.0878 9.93708 5.01286 10.1631C4.93792 10.3892 4.8766 10.621 4.82835 10.8544C4.62614 11.7953 4.59996 12.7655 4.75113 13.716C4.90302 14.6777 5.23139 15.603 5.71969 16.4452C5.723 16.4512 5.72384 16.4582 5.72204 16.4648C5.72024 16.4714 5.71593 16.477 5.71004 16.4805C5.70457 16.4837 5.69806 16.4848 5.69183 16.4834C5.6856 16.4821 5.68013 16.4783 5.67655 16.4731C5.1042 15.659 4.70214 14.7376 4.49452 13.7643C4.38607 13.2757 4.32673 12.7776 4.31738 12.2772C4.31 12.0268 4.32079 11.7757 4.33612 11.5252C4.35145 11.2747 4.38664 11.0248 4.43263 10.7772C4.47862 10.5295 4.53426 10.2841 4.59898 10.0388C4.63588 9.91834 4.66824 9.79622 4.71253 9.67694L4.77157 9.50143L4.83856 9.32421C5.02292 8.85173 5.2512 8.39761 5.52042 7.96782C5.78998 7.53821 6.1019 7.13671 6.45151 6.76934L6.58322 6.63245L6.72005 6.50011C6.80918 6.41036 6.90684 6.32971 6.99994 6.2428C7.19354 6.07922 7.38998 5.91791 7.59834 5.77307C8.42846 5.18454 9.36499 4.76303 10.3558 4.53198C10.8505 4.41889 11.3549 4.35327 11.8621 4.33602C12.3679 4.32125 12.8739 4.353 13.3739 4.43088C13.8728 4.51057 14.3632 4.63664 14.8387 4.80746C15.3135 4.97944 15.77 5.19845 16.2013 5.46123C16.4159 5.59301 16.6241 5.73425 16.8258 5.88496C17.0251 6.03776 17.2198 6.1968 17.4032 6.36776C17.7721 6.70595 18.1082 7.07832 18.4069 7.47991C19.5974 9.09675 20.1517 11.0952 19.9643 13.0946C19.9172 13.5891 19.826 14.0784 19.6917 14.5566C19.5591 15.0371 19.3823 15.5043 19.1637 15.9522C18.7243 16.8593 18.1093 17.6702 17.3544 18.3378C17.1636 18.502 16.9689 18.6621 16.7628 18.8081C16.6617 18.8831 16.5567 18.9524 16.4511 19.0223C16.3455 19.0921 16.2399 19.1529 16.1263 19.2142C15.9083 19.3415 15.6818 19.4534 15.453 19.5602C15.2224 19.663 14.9866 19.754 14.7467 19.8328C14.2677 19.9918 13.7742 20.1036 13.2735 20.1668C12.7738 20.228 12.2695 20.2419 11.7672 20.2082C11.266 20.1737 10.7694 20.0904 10.2843 19.9595C9.80091 19.8285 9.33202 19.6489 8.88484 19.4233L8.71849 19.3386L8.55498 19.2478C8.44484 19.191 8.34038 19.1205 8.23364 19.0569C8.02585 18.9206 7.81919 18.782 7.62502 18.6275C7.23461 18.3238 6.87604 17.9813 6.55484 17.6051C6.55012 17.6002 6.54748 17.5937 6.54748 17.5869C6.54748 17.5801 6.55012 17.5736 6.55484 17.5687C6.55952 17.5646 6.56559 17.5622 6.57187 17.5622C6.57815 17.5622 6.58422 17.5646 6.5889 17.5687L6.59344 17.567Z" fill="white"/>
<path d="M17.6593 10.2006C17.6338 10.5341 17.5249 10.8558 17.3425 11.1361C17.1676 11.4104 16.9485 11.6537 16.6941 11.8563C16.5707 11.958 16.4418 12.0528 16.308 12.1403L16.1036 12.2619C16.0696 12.2818 16.0355 12.3028 16.0015 12.3221L15.8998 12.3755C15.3622 12.668 14.8052 12.9242 14.2432 13.1627C13.6811 13.4013 13.1117 13.6069 12.5496 13.8182L12.1283 13.9756L11.7105 14.138C11.5703 14.1903 11.4346 14.2516 11.2966 14.3084L11.0894 14.3936C11.0207 14.422 10.9531 14.4532 10.885 14.4834L10.4774 14.6657L10.0765 14.8628C10.0095 14.8963 9.94142 14.9264 9.87556 14.9605L9.67799 15.0656L9.28057 15.2751C8.23423 15.8534 7.23671 16.5247 6.24544 17.2205C6.24276 17.2226 6.23969 17.224 6.23643 17.2248C6.23317 17.2256 6.22978 17.2257 6.22648 17.2251C6.22318 17.2245 6.22003 17.2232 6.21724 17.2214C6.21444 17.2195 6.21206 17.2171 6.21024 17.2143C6.20676 17.2092 6.2052 17.2031 6.20582 17.1969C6.20645 17.1908 6.20922 17.1851 6.21365 17.1808C6.43696 16.9763 6.66197 16.7733 6.88869 16.5719C7.00223 16.4696 7.12089 16.3771 7.23728 16.2794L7.59041 15.992C7.82602 15.8005 8.07469 15.625 8.31882 15.4427C8.37957 15.3967 8.44202 15.3541 8.50561 15.3115L8.69523 15.1814C8.82127 15.0957 8.94787 15.011 9.07618 14.9275C10.1111 14.2767 11.2099 13.7337 12.3554 13.307C12.9232 13.0889 13.4864 12.8833 14.0433 12.668C14.1824 12.6112 14.3198 12.5544 14.4583 12.4976C14.527 12.4692 14.5969 12.4408 14.665 12.4124L14.8688 12.3215C15.0039 12.2596 15.1425 12.2045 15.2759 12.1386L15.6778 11.9444L15.7783 11.8955C15.8107 11.8785 15.8414 11.8609 15.8731 11.8439L16.0611 11.7399C16.1786 11.661 16.3035 11.5894 16.4125 11.4996C16.6378 11.3333 16.8361 11.1333 17.0007 10.9066C17.0398 10.8498 17.0733 10.793 17.1108 10.7334C17.1483 10.6738 17.1676 10.6113 17.2017 10.5505C17.2357 10.4897 17.2482 10.4238 17.2709 10.3597L17.2931 10.262C17.3019 10.2295 17.3084 10.1965 17.3124 10.1631C17.3504 9.89488 17.3038 9.62143 17.1789 9.381C17.04 9.13721 16.8352 8.93758 16.5879 8.80504C16.5567 8.78857 16.5266 8.76926 16.4943 8.75392L16.3949 8.71189C16.3614 8.69826 16.329 8.68292 16.295 8.671L16.1911 8.63919L16.0866 8.60795L15.9799 8.59261C15.9084 8.5767 15.8359 8.56532 15.763 8.55853L15.654 8.54774C15.6175 8.54274 15.5807 8.54027 15.5439 8.54036H15.323C14.8252 8.55262 14.2462 8.7189 14.0189 8.8005C13.4574 9.00328 12.9368 9.30091 12.4389 9.63262C11.9443 9.96522 11.4689 10.3255 11.015 10.7118C9.18746 12.2403 7.61766 14.0721 6.29881 16.0902C6.29702 16.0931 6.29468 16.0955 6.29193 16.0974C6.28917 16.0994 6.28606 16.1007 6.28277 16.1014C6.27949 16.1021 6.2761 16.1021 6.2728 16.1015C6.26951 16.1008 6.26638 16.0995 6.26361 16.0976C6.25856 16.0943 6.25483 16.0892 6.25307 16.0834C6.25131 16.0776 6.25162 16.0714 6.25396 16.0658C6.4999 15.5102 6.78643 14.9735 7.11124 14.4601C7.27172 14.2014 7.43958 13.9475 7.61482 13.6984L7.62428 13.6852C7.79826 13.4419 7.97251 13.1983 8.16099 12.9651C8.35288 12.7277 8.54535 12.4914 8.74576 12.2608C8.94617 12.0302 9.15567 11.8064 9.37027 11.5917C9.79908 11.1544 10.2596 10.7494 10.7482 10.3801C11.2383 10.0122 11.7546 9.68057 12.293 9.38781C12.8269 9.08983 13.3867 8.84079 13.9655 8.64373C14.2573 8.54949 14.5556 8.47696 14.858 8.42676L14.9716 8.40744C15.009 8.4012 15.0477 8.39949 15.0851 8.39552C15.1618 8.38927 15.2384 8.38018 15.3122 8.37564L15.5439 8.3728C15.5827 8.37167 15.6215 8.37281 15.6602 8.3762L15.7738 8.38359C15.8515 8.38759 15.9289 8.3967 16.0054 8.41085L16.119 8.42903L16.2325 8.458L16.3461 8.4864C16.3841 8.49719 16.4204 8.51196 16.4596 8.52502L16.5732 8.56478C16.6101 8.57955 16.6453 8.59886 16.681 8.61533C16.9778 8.7525 17.2311 8.96864 17.4134 9.24013C17.5941 9.52655 17.6801 9.86258 17.6593 10.2006Z" fill="white"/>
</svg>
