<svg width="11" height="18" viewBox="0 0 11 18" fill="none" xmlns="http://www.w3.org/2000/svg">
<path d="M1.35651 17.5715C1.10676 17.8082 0.701834 17.8082 0.452084 17.5715V17.5715C0.202333 17.3348 0.202333 16.951 0.452084 16.7144L9.04414 8.57151C9.29389 8.33482 9.69881 8.33482 9.94856 8.57151V8.57151C10.1983 8.80821 10.1983 9.19196 9.94856 9.42865L1.35651 17.5715Z" fill="white"/>
<path d="M0.452213 1.28578C0.202463 1.04909 0.202463 0.665331 0.452213 0.428638V0.428638C0.701964 0.191945 1.10689 0.191945 1.35664 0.428638L9.94869 8.57147C10.1984 8.80817 10.1984 9.19192 9.94869 9.42861V9.42861C9.69894 9.66531 9.29402 9.66531 9.04426 9.42861L0.452213 1.28578Z" fill="white"/>
</svg>
