<svg width="17" height="17" viewBox="0 0 17 17" fill="none" xmlns="http://www.w3.org/2000/svg">
<circle cx="8.5" cy="8.5" r="8" stroke="white"/>
<path d="M11.5 8.5C11.5 10.7983 11.1155 12.8558 10.5125 14.32C10.2106 15.0533 9.8637 15.6139 9.50409 15.9832C9.14602 16.3511 8.80689 16.5 8.5 16.5C8.19311 16.5 7.85398 16.3511 7.49591 15.9832C7.1363 15.6139 6.78942 15.0533 6.48747 14.32C5.88453 12.8558 5.5 10.7983 5.5 8.5C5.5 6.20166 5.88453 4.14423 6.48747 2.67997C6.78942 1.94666 7.1363 1.38614 7.49591 1.01675C7.85398 0.648942 8.19311 0.5 8.5 0.5C8.80689 0.5 9.14602 0.648942 9.50409 1.01675C9.8637 1.38614 10.2106 1.94666 10.5125 2.67997C11.1155 4.14423 11.5 6.20166 11.5 8.5Z" stroke="white"/>
<line x1="1" y1="8.5" x2="16" y2="8.5" stroke="white"/>
</svg>
