<svg width="18" height="16" viewBox="0 0 18 16" fill="none" xmlns="http://www.w3.org/2000/svg">
<path d="M1.30998 15.4957C0.919459 15.1052 0.919459 14.472 1.30998 14.0815L15.0986 0.292893C15.4891 -0.0976311 16.1223 -0.0976311 16.5128 0.292893L16.6896 0.46967C17.0801 0.860194 17.0801 1.49336 16.6896 1.88388L2.90097 15.6725C2.51045 16.063 1.87728 16.063 1.48676 15.6725L1.30998 15.4957Z" fill="#245549"/>
<path d="M1.48676 0.292893C1.87728 -0.0976311 2.51045 -0.097631 2.90097 0.292893L16.6896 14.0815C17.0801 14.472 17.0801 15.1052 16.6896 15.4957L16.5128 15.6725C16.1223 16.063 15.4891 16.063 15.0986 15.6725L1.30998 1.88388C0.919459 1.49336 0.919459 0.860194 1.30998 0.46967L1.48676 0.292893Z" fill="#245549"/>
</svg>
