<svg width="81" height="80" viewBox="0 0 81 80" fill="none" xmlns="http://www.w3.org/2000/svg">
<path d="M4.18748 69.6029C5.05044 68.3907 5.95942 67.2043 6.87128 66.0264C7.78314 64.8486 8.72952 63.6936 9.67878 62.5443C11.5773 60.242 13.5343 57.9873 15.5498 55.7802C19.5834 51.3569 23.8759 47.1738 28.405 43.2526C32.9442 39.3388 37.6444 35.4908 42.9919 32.609C43.6506 32.2374 44.3295 31.8943 45.0055 31.5569C45.6815 31.2196 46.3517 30.8679 47.0564 30.5735L49.1419 29.6672C49.8524 29.3813 50.5658 29.1355 51.2763 28.8753C54.1276 27.8494 57.0876 27.1511 60.0986 26.794C60.1331 26.7916 60.1673 26.8024 60.1941 26.8242C60.2208 26.846 60.2381 26.8771 60.2425 26.9113C60.2456 26.9397 60.239 26.9683 60.2239 26.9927C60.2088 27.017 60.186 27.0356 60.159 27.0456C57.3779 28.0724 54.6513 29.2394 51.9897 30.542C51.3338 30.8794 50.6809 31.2139 50.025 31.5398L48.092 32.5919C47.4419 32.9292 46.8177 33.3209 46.1848 33.6897L45.2327 34.2414C44.9163 34.4244 44.6085 34.6302 44.2978 34.8132C41.7866 36.3313 39.3387 37.958 36.8879 39.5932C34.4371 41.2285 32.0438 42.9667 29.734 44.8107C28.5833 45.7255 27.4327 46.6804 26.3051 47.6296C25.1775 48.5787 24.0614 49.5593 22.9655 50.557C20.7544 52.5316 18.5941 54.5633 16.4847 56.6522C12.2504 60.8319 8.19161 65.1831 4.39459 69.7573C4.37273 69.7833 4.34145 69.7997 4.30752 69.8029C4.27359 69.8061 4.23976 69.7959 4.21336 69.7744C4.1883 69.7542 4.17175 69.7254 4.16696 69.6937C4.16217 69.6619 4.16949 69.6296 4.18748 69.6029Z" fill="#245549"/>
<path d="M68.5986 29.5357C68.4698 31.2143 67.9178 32.8336 66.9935 34.2443C66.1074 35.6247 64.9974 36.8496 63.7085 37.8694C63.0833 38.3811 62.4303 38.8584 61.7524 39.2988L60.7169 39.9106C60.5443 40.0107 60.3717 40.1164 60.1991 40.2136L59.6842 40.4824C56.9601 41.9547 54.1383 43.2441 51.2905 44.4448C48.4427 45.6455 45.5576 46.6804 42.7098 47.7439L40.5754 48.5358L38.4583 49.3535C37.7478 49.6165 37.0603 49.9253 36.3613 50.2111L35.3113 50.64C34.9633 50.7829 34.621 50.9402 34.2758 51.0917L32.2104 52.0094L30.1796 53.0014C29.8402 53.1701 29.495 53.3216 29.1613 53.4931L28.1603 54.022L26.1467 55.077C20.8453 57.9873 15.7912 61.3665 10.7688 64.8686C10.7552 64.8788 10.7397 64.8861 10.7231 64.89C10.7066 64.8939 10.6894 64.8944 10.6727 64.8915C10.656 64.8885 10.64 64.8822 10.6259 64.8728C10.6117 64.8635 10.5997 64.8513 10.5904 64.8372C10.5728 64.8115 10.5649 64.7806 10.5681 64.7497C10.5712 64.7188 10.5853 64.6901 10.6077 64.6685C11.7391 63.6393 12.8792 62.6177 14.0279 61.6038C14.6032 61.0892 15.2044 60.6232 15.7941 60.1315L17.5833 58.6849C18.777 57.7214 20.037 56.838 21.2739 55.9203C21.5817 55.6888 21.8981 55.4743 22.2203 55.2599L23.181 54.6052C23.8196 54.1735 24.4611 53.7476 25.1112 53.3273C30.3545 50.0515 35.9219 47.3185 41.726 45.1709C44.6025 44.0731 47.4561 43.0382 50.2779 41.9547C50.9827 41.6688 51.6788 41.3829 52.3807 41.097C52.7287 40.9541 53.0826 40.8111 53.4277 40.6682L54.4604 40.2108C55.145 39.8992 55.8469 39.6219 56.5229 39.2902L58.5595 38.3125L59.0686 38.0666C59.2326 37.9809 59.3879 37.8922 59.549 37.8065L60.5011 37.2833C61.0966 36.8859 61.7294 36.5257 62.2817 36.074C63.423 35.2367 64.4281 34.23 65.2618 33.0893C65.4603 32.8034 65.63 32.5175 65.8198 32.2174C66.0097 31.9172 66.1075 31.6027 66.2801 31.2968C66.4527 30.9909 66.516 30.6593 66.631 30.3362L66.7432 29.8445C66.7882 29.6813 66.8209 29.515 66.841 29.347C67.0339 27.9969 66.7976 26.6205 66.165 25.4104C65.4611 24.1833 64.4232 23.1786 63.1706 22.5115C63.0124 22.4286 62.8599 22.3314 62.6959 22.2542L62.1925 22.0426C62.0228 21.974 61.8589 21.8968 61.6863 21.8368L61.1599 21.6767L60.6306 21.5194L60.0898 21.4422C59.7275 21.3621 59.3605 21.3049 58.991 21.2707L58.4387 21.2164C58.2537 21.1912 58.0673 21.1788 57.8806 21.1792H56.7617H56.6322C55.3493 21.8825 52.2023 23.8123 50.0622 26.8427C51.0598 24.8903 52.3336 23.09 53.8448 21.4966C52.5923 21.7402 51.359 22.0726 50.1543 22.4915C47.3094 23.5121 44.6716 25.0101 42.1489 26.6797C39.643 28.3538 37.2344 30.1673 34.9345 32.1116C25.675 39.802 17.7214 49.0218 11.0392 59.1794C11.0301 59.1938 11.0183 59.2061 11.0043 59.2158C10.9904 59.2254 10.9746 59.2322 10.9579 59.2357C10.9413 59.2392 10.9241 59.2393 10.9074 59.236C10.8907 59.2327 10.8749 59.2261 10.8608 59.2166C10.8352 59.1997 10.8164 59.1745 10.8075 59.1453C10.7985 59.1161 10.8001 59.0847 10.8119 59.0565C12.058 56.2601 13.5098 53.5588 15.1555 50.9745C15.9686 49.6727 16.8191 48.3948 17.707 47.1407C18.6045 45.8942 19.5019 44.6449 20.4742 43.4499C21.4465 42.2549 22.4216 41.0656 23.437 39.9049C24.4524 38.7442 25.5139 37.6178 26.6012 36.5371C28.7738 34.3361 31.1073 32.2979 33.5826 30.4391C36.0659 28.5874 38.6819 26.9182 41.4096 25.4447C44.1149 23.9449 46.9513 22.6914 49.8839 21.6995C51.362 21.2252 52.8734 20.8602 54.4058 20.6075L54.9811 20.5102C55.1709 20.4788 55.3665 20.4702 55.5564 20.4502C55.9447 20.4188 56.333 20.373 56.707 20.3502L57.8806 20.3359C58.0774 20.3302 58.2742 20.3359 58.4703 20.353L59.0456 20.3902C59.4394 20.4103 59.8315 20.4562 60.2192 20.5274L60.7945 20.6189L61.3699 20.7647L61.9452 20.9076C62.1379 20.962 62.322 21.0363 62.5205 21.102L63.0958 21.3022C63.2827 21.3765 63.4611 21.4737 63.6423 21.5566C65.1459 22.247 66.4295 23.3349 67.353 24.7014C68.2684 26.143 68.7041 27.8343 68.5986 29.5357Z" fill="#245549"/>
<path d="M12.5324 66.6124C16.0849 70.0094 20.2153 72.7535 24.7317 74.7174C25.2869 74.9718 25.8622 75.1748 26.426 75.4063C26.9898 75.6379 27.5766 75.8295 28.1519 76.0039C29.3025 76.3955 30.4819 76.6986 31.6613 76.9816C34.0265 77.5002 36.4327 77.8131 38.8526 77.9164C41.2709 78.0121 43.6928 77.8839 46.0871 77.5333C48.4771 77.2041 50.8288 76.643 53.1087 75.858C57.6764 74.2833 61.9238 71.9093 65.6504 68.8481C66.5738 68.0733 67.4856 67.2843 68.3457 66.4352C69.2058 65.5861 70.0314 64.7199 70.808 63.7821C72.3824 61.9373 73.7699 59.9426 74.9502 57.8271C76.1417 55.7029 77.1216 53.4681 77.8757 51.1545C78.0713 50.5827 78.2295 49.9881 78.3963 49.4048C78.5632 48.8216 78.7099 48.2241 78.8249 47.6266L79.0148 46.7289L79.1701 45.8284C79.288 45.228 79.3484 44.6219 79.429 44.0159C79.5498 42.8008 79.639 41.583 79.6447 40.3594C79.6634 39.1378 79.6144 37.9162 79.498 36.7C79.2634 34.2666 78.7924 31.8616 78.0914 29.5185C77.729 28.3549 77.3349 27.1971 76.866 26.0707C76.3971 24.9443 75.865 23.8436 75.3069 22.763C74.1567 20.618 72.7983 18.59 71.251 16.7078C66.6071 11.0872 60.4716 6.87216 53.5402 4.54046C51.2527 3.78597 48.9018 3.23677 46.5157 2.89947C44.133 2.57981 41.7259 2.47646 39.3244 2.59071C36.9267 2.70933 34.5457 3.05395 32.2136 3.6199C31.063 3.90579 29.9124 4.246 28.7617 4.64052C27.6111 5.03505 26.5382 5.47532 25.4509 5.95847C23.2701 6.94982 21.1846 8.13638 19.2203 9.50348C15.2662 12.2297 11.8692 15.6776 9.20996 19.6639C7.87378 21.6581 6.7287 23.7725 5.78976 25.9792C5.31225 27.0799 4.90379 28.2091 4.52408 29.347C4.14438 30.4848 3.83372 31.6512 3.58921 32.8262C2.56468 37.562 2.43204 42.4454 3.198 47.2292C3.96754 52.0698 5.63132 56.7271 8.10537 60.9662C8.12212 60.9962 8.12638 61.0316 8.11724 61.0647C8.10811 61.0978 8.08629 61.126 8.05647 61.1434C8.02875 61.1599 7.99573 61.1653 7.96418 61.1583C7.93262 61.1514 7.90492 61.1328 7.88675 61.1062C4.98685 57.0089 2.94979 52.3714 1.89781 47.4722C1.34834 45.0134 1.04769 42.506 1.00033 39.9877C0.962937 38.7269 1.01759 37.4633 1.09526 36.2025C1.17292 34.9418 1.35127 33.6839 1.58427 32.4374C1.81727 31.1909 2.09917 29.9559 2.42709 28.7209C2.61407 28.1148 2.77803 27.5001 3.0024 26.8998L3.30156 26.0164L3.64099 25.1244C4.57504 22.7463 5.73169 20.4606 7.0957 18.2974C8.46148 16.135 10.0419 14.1142 11.8132 12.2652L12.4806 11.5762L13.1738 10.91C13.6254 10.4583 14.1202 10.0524 14.5919 9.61497C15.5728 8.79161 16.5681 7.97969 17.6238 7.25068C21.8297 4.2885 26.5748 2.16695 31.5951 1.00403C34.1016 0.434788 36.657 0.10452 39.2266 0.0177155C41.7893 -0.0566403 44.3535 0.103176 46.8868 0.495148C49.4145 0.896233 51.8991 1.53079 54.3082 2.39058C56.714 3.25618 59.0267 4.35852 61.2119 5.68115C62.2992 6.34441 63.354 7.05532 64.3761 7.81388C65.3858 8.58292 66.3724 9.3834 67.3015 10.2439C69.1708 11.9461 70.8736 13.8203 72.3872 15.8416C78.4188 23.9795 81.2272 34.0384 80.2776 44.1016C80.0391 46.5906 79.577 49.0533 78.8968 51.4604C78.2247 53.8787 77.3292 56.2301 76.2217 58.4846C73.9952 63.0504 70.8792 67.1317 67.0541 70.4919C66.0876 71.3182 65.101 72.1244 64.0568 72.8591C63.5448 73.2365 63.0126 73.5852 62.4776 73.9369C61.9426 74.2885 61.4075 74.5944 60.8322 74.9032C59.7276 75.5436 58.5799 76.1068 57.4206 76.6442C56.2521 77.1618 55.0577 77.6198 53.8422 78.0165C51.4149 78.8167 48.9149 79.3797 46.3776 79.6975C43.8461 80.0056 41.2909 80.0755 38.7462 79.9062C36.2067 79.7322 33.6903 79.3129 31.2327 78.654C28.7834 77.9949 26.4077 77.0907 24.142 75.9552L23.2992 75.5293L22.4708 75.0719C21.9127 74.786 21.3834 74.4315 20.8427 74.1113C19.7898 73.4251 18.7428 72.7276 17.759 71.95C15.7809 70.4215 13.9642 68.6974 12.3367 66.804C12.3128 66.7794 12.2995 66.7467 12.2995 66.7125C12.2995 66.6784 12.3128 66.6455 12.3367 66.621C12.3605 66.5999 12.3912 66.5882 12.423 66.5882C12.4549 66.5882 12.4856 66.5999 12.5093 66.621L12.5324 66.6124Z" fill="#245549"/>
</svg>
