<svg width="444" height="449" viewBox="0 0 444 449" fill="none" xmlns="http://www.w3.org/2000/svg">
<path d="M18.73 390.773C23.5307 383.984 28.5874 377.34 33.6602 370.744C38.7329 364.148 43.9977 357.68 49.2784 351.245C59.84 338.351 70.7269 325.725 81.9392 313.366C104.378 288.595 128.258 265.169 153.453 243.211C178.705 221.294 204.853 199.745 234.601 183.607C238.266 181.525 242.042 179.604 245.803 177.715C249.563 175.826 253.292 173.857 257.213 172.208L268.814 167.133C272.767 165.532 276.735 164.155 280.688 162.698C296.55 156.953 313.017 153.042 329.767 151.043C329.959 151.029 330.149 151.09 330.298 151.212C330.447 151.334 330.543 151.508 330.567 151.699C330.584 151.859 330.548 152.019 330.464 152.155C330.38 152.291 330.253 152.396 330.103 152.452C314.632 158.202 299.463 164.737 284.656 172.032C281.008 173.921 277.375 175.794 273.727 177.619L262.973 183.511C259.357 185.4 255.884 187.593 252.364 189.658L247.067 192.748C245.307 193.773 243.595 194.926 241.866 195.95C227.896 204.451 214.278 213.561 200.644 222.718C187.01 231.876 173.696 241.61 160.847 251.936C154.446 257.059 148.045 262.407 141.772 267.722C135.499 273.037 129.29 278.528 123.193 284.116C110.893 295.173 98.8749 306.551 87.1399 318.248C63.5845 341.655 41.0052 366.021 19.8822 391.637C19.7606 391.783 19.5866 391.874 19.3978 391.892C19.2091 391.91 19.0209 391.853 18.874 391.733C18.7346 391.62 18.6425 391.458 18.6159 391.281C18.5892 391.103 18.6299 390.922 18.73 390.773Z" fill="white"/>
<path d="M377.054 166.396C376.338 175.796 373.267 184.864 368.125 192.764C363.196 200.494 357.021 207.354 349.85 213.065C346.373 215.931 342.74 218.603 338.969 221.07L333.208 224.496C332.248 225.056 331.287 225.648 330.327 226.193L327.463 227.698C312.309 235.943 296.61 243.163 280.768 249.887C264.926 256.611 248.876 262.407 233.033 268.362L221.16 272.797L209.382 277.376C205.429 278.849 201.605 280.578 197.716 282.179L191.875 284.58C189.939 285.381 188.035 286.261 186.114 287.11L174.625 292.249L163.327 297.804C161.439 298.749 159.519 299.597 157.662 300.558L152.094 303.52L140.892 309.427C111.4 325.725 83.2836 344.649 55.3435 364.26C55.268 364.317 55.1816 364.358 55.0897 364.38C54.9977 364.402 54.9022 364.405 54.8091 364.389C54.716 364.372 54.6273 364.337 54.5486 364.284C54.4698 364.232 54.4027 364.164 54.3514 364.084C54.2534 363.941 54.2094 363.767 54.2269 363.595C54.2445 363.422 54.3226 363.261 54.4474 363.14C60.7416 357.376 67.0839 351.656 73.4741 345.977C76.6746 343.096 80.0191 340.486 83.2996 337.732L93.253 329.631C99.894 324.236 106.903 319.289 113.784 314.15C115.496 312.853 117.256 311.653 119.049 310.452L124.394 306.786C127.946 304.368 131.515 301.983 135.131 299.629C164.3 281.285 195.272 265.98 227.56 253.954C243.563 247.806 259.437 242.01 275.135 235.943C279.056 234.342 282.928 232.741 286.833 231.14C288.769 230.339 290.738 229.539 292.658 228.738L298.403 226.177C302.211 224.432 306.116 222.879 309.876 221.022L321.206 215.546L324.038 214.169C324.951 213.689 325.815 213.193 326.711 212.712L332.008 209.783C335.32 207.557 338.841 205.54 341.913 203.011C348.262 198.322 353.854 192.685 358.491 186.296C359.596 184.695 360.54 183.095 361.596 181.413C362.652 179.732 363.196 177.971 364.156 176.258C365.116 174.545 365.468 172.688 366.109 170.879L366.733 168.125C366.983 167.212 367.165 166.281 367.277 165.34C368.35 157.779 367.035 150.071 363.516 143.294C359.6 136.423 353.826 130.796 346.858 127.06C345.978 126.596 345.129 126.052 344.217 125.62L341.417 124.435C340.473 124.051 339.561 123.618 338.601 123.282L335.672 122.386L332.728 121.505L329.719 121.073C327.704 120.624 325.662 120.303 323.606 120.112L320.534 119.808C319.505 119.667 318.468 119.598 317.429 119.6H311.205L310.036 119.888C298.457 126.344 288.039 134.694 279.216 144.591C279.1 144.719 278.941 144.8 278.769 144.818C278.597 144.836 278.425 144.79 278.284 144.689C278.144 144.589 278.046 144.44 278.008 144.271C277.97 144.102 277.996 143.926 278.08 143.775C282.889 135.716 288.555 128.201 294.978 121.361C288.01 122.725 281.149 124.587 274.447 126.932C258.621 132.648 243.947 141.037 229.913 150.387C215.973 159.761 202.573 169.917 189.779 180.805C138.268 223.887 94.0211 275.519 56.8477 332.401C56.7974 332.481 56.7315 332.551 56.6539 332.605C56.5762 332.659 56.4885 332.697 56.3959 332.716C56.3033 332.736 56.2077 332.736 56.1149 332.718C56.022 332.699 55.9338 332.663 55.8556 332.609C55.7133 332.515 55.6083 332.373 55.5587 332.21C55.509 332.046 55.5178 331.871 55.5836 331.713C62.5156 316.053 70.592 300.925 79.747 286.453C84.2704 279.164 89.0017 272.007 93.9411 264.984C98.9338 258.004 103.927 251.008 109.335 244.316C114.744 237.624 120.169 230.964 125.818 224.464C131.467 217.964 137.371 211.656 143.42 205.604C155.507 193.279 168.488 181.865 182.258 171.455C196.073 161.086 210.626 151.738 225.8 143.486C240.85 135.088 256.629 128.068 272.943 122.514C281.166 119.857 289.574 117.813 298.099 116.398L301.299 115.854C302.355 115.678 303.443 115.63 304.5 115.517C306.66 115.341 308.82 115.085 310.901 114.957L317.429 114.877C318.524 114.845 319.619 114.877 320.71 114.973L323.91 115.181C326.101 115.294 328.282 115.551 330.439 115.95L333.64 116.462L336.84 117.279L340.041 118.079C341.113 118.383 342.137 118.799 343.241 119.168L346.442 120.288C347.482 120.705 348.474 121.249 349.482 121.713C357.846 125.58 364.988 131.672 370.125 139.324C375.217 147.397 377.641 156.868 377.054 166.396Z" fill="white"/>
<path d="M65.1529 374.026C84.9161 393.049 107.894 408.416 133.019 419.414C136.107 420.839 139.308 421.976 142.444 423.272C145.581 424.569 148.845 425.642 152.046 426.618C158.446 428.812 165.007 430.509 171.568 432.094C184.726 434.998 198.112 436.75 211.574 437.329C225.027 437.865 238.5 437.147 251.82 435.184C265.116 433.34 278.199 430.198 290.882 425.802C316.292 416.983 339.921 403.689 360.652 386.546C365.788 382.207 370.861 377.789 375.646 373.034C380.431 368.279 385.023 363.428 389.344 358.177C398.102 347.846 405.821 336.676 412.387 324.829C419.016 312.933 424.466 300.418 428.662 287.462C429.75 284.26 430.63 280.93 431.558 277.664C432.486 274.398 433.302 271.052 433.942 267.706L434.998 262.679L435.863 257.636C436.519 254.274 436.855 250.88 437.303 247.486C437.975 240.682 438.471 233.861 438.503 227.009C438.607 220.169 438.335 213.327 437.687 206.517C436.382 192.89 433.761 179.422 429.862 166.3C427.845 159.784 425.653 153.3 423.045 146.993C420.436 140.685 417.476 134.521 414.372 128.469C407.973 116.458 400.416 105.101 391.808 94.5608C365.974 63.0854 331.842 39.4809 293.282 26.4234C280.557 22.1982 267.478 19.1227 254.204 17.2338C240.949 15.4438 227.559 14.865 214.199 15.5048C200.86 16.1691 187.615 18.0989 174.641 21.2683C168.24 22.8693 161.839 24.7744 155.438 26.9838C149.037 29.1931 143.068 31.6586 137.019 34.3642C124.888 39.9158 113.286 46.5606 102.358 54.2163C80.3616 69.4831 61.4639 88.7916 46.6703 111.115C39.2371 122.282 32.8669 134.123 27.6435 146.48C24.9871 152.644 22.7148 158.968 20.6025 165.34C18.4902 171.712 16.7619 178.244 15.4017 184.824C9.70224 211.344 8.96434 238.691 13.2254 265.481C17.5064 292.588 26.7621 318.669 40.5254 342.407C40.6186 342.576 40.6423 342.774 40.5914 342.959C40.5406 343.145 40.4193 343.303 40.2533 343.4C40.0992 343.492 39.9155 343.522 39.7399 343.484C39.5644 343.445 39.4103 343.34 39.3092 343.192C23.1769 320.246 11.8446 294.277 5.99238 266.841C2.93566 253.072 1.2631 239.031 0.999656 224.928C0.791626 217.868 1.09567 210.791 1.52773 203.731C1.9598 196.671 2.95194 189.627 4.24813 182.646C5.54431 175.666 7.11254 168.75 8.93681 161.834C9.97696 158.44 10.8891 154.997 12.1373 151.635L13.8015 146.688L15.6898 141.693C20.886 128.376 27.3205 115.576 34.9086 103.462C42.5065 91.3531 51.2983 80.0364 61.1524 69.6817L64.8649 65.8233L68.7215 62.0931C71.2338 59.5635 73.9862 57.2902 76.6106 54.8407C82.0674 50.2299 87.6042 45.6831 93.477 41.6006C116.875 25.0124 143.272 13.1318 171.2 6.61939C185.144 3.43164 199.36 1.58214 213.654 1.09603C227.911 0.679641 242.176 1.57461 256.269 3.76966C270.331 6.01573 284.152 9.56927 297.555 14.3841C310.938 19.2315 323.804 25.4045 335.96 32.8113C342.009 36.5255 347.877 40.5066 353.563 44.7545C359.18 49.0612 364.668 53.5439 369.837 58.3628C380.236 67.8948 389.709 78.3907 398.129 89.7098C431.683 135.282 447.307 191.612 442.024 247.966C440.697 261.904 438.126 275.695 434.342 289.175C430.603 302.718 425.622 315.886 419.46 328.511C407.074 354.079 389.74 376.934 368.461 395.752C363.084 400.379 357.595 404.893 351.786 409.008C348.938 411.121 345.978 413.074 343.001 415.043C340.025 417.013 337.048 418.726 333.848 420.455C327.703 424.041 321.318 427.195 314.869 430.205C308.368 433.103 301.724 435.668 294.962 437.889C281.459 442.37 267.551 445.523 253.436 447.303C239.353 449.028 225.139 449.419 210.982 448.472C196.855 447.497 182.856 445.149 169.184 441.459C155.559 437.768 142.343 432.705 129.738 426.346L125.05 423.961L120.441 421.399C117.336 419.798 114.392 417.813 111.384 416.02C105.527 412.178 99.7019 408.271 94.2291 403.917C83.225 395.357 73.1183 385.702 64.0648 375.099C63.9318 374.962 63.8575 374.778 63.8575 374.587C63.8575 374.396 63.9318 374.212 64.0648 374.075C64.1968 373.956 64.3677 373.891 64.5449 373.891C64.722 373.891 64.8929 373.956 65.0249 374.075L65.1529 374.026Z" fill="white"/>
</svg>
