<svg width="32" height="32" viewBox="0 0 32 32" fill="none" xmlns="http://www.w3.org/2000/svg">
<path d="M15.8085 0C20.1663 0.0266806 23.8838 1.45854 26.9877 4.38452C30.0826 7.31049 31.7724 10.9391 31.977 15.1991C32.1904 19.7526 30.7319 23.7369 27.5747 27.0364C24.4708 30.2825 20.6377 31.9545 16.1376 31.999C11.9487 32.0434 8.27567 30.6383 5.1985 27.8012C1.56993 24.4484 -0.173204 20.2506 0.0135605 15.3147C0.164751 11.1792 1.7567 7.62177 4.68267 4.70469C7.76873 1.61862 11.5396 0.0800419 15.8085 0Z" fill="white" fill-opacity="0.66"/>
<path d="M11.0769 18.1606C10.2054 17.8938 9.3249 17.6181 8.45333 17.3513C8.02644 17.2179 7.59955 17.0845 7.17266 16.9511C7.01258 16.8977 6.86139 16.8443 6.72799 16.7465C6.47897 16.5597 6.46118 16.3285 6.67462 16.0973C6.81692 15.9372 6.99479 15.8305 7.19045 15.7504C7.70628 15.5459 8.2221 15.3413 8.73793 15.1368C12.2953 13.7672 15.8528 12.3887 19.4191 11.0191C20.5486 10.5833 21.6691 10.1475 22.7986 9.7117C22.9498 9.64945 23.1099 9.61387 23.2789 9.64055C23.6168 9.69392 23.8747 9.96962 23.9103 10.3254C23.9281 10.521 23.9192 10.7167 23.8836 10.9123C23.4479 12.9578 23.0121 15.0123 22.5763 17.0578C22.2205 18.7475 21.8559 20.4373 21.5002 22.136C21.4201 22.5184 21.3401 22.9008 21.26 23.2833C21.2245 23.47 21.1711 23.6479 21.0822 23.8169C20.9043 24.1459 20.6197 24.2704 20.2551 24.1993C20.0327 24.1548 19.8371 24.057 19.6592 23.9236C18.4319 23.0165 17.2046 22.1004 15.9684 21.1933C15.915 21.1488 15.8528 21.1132 15.7994 21.0777C15.586 21.0154 15.4348 20.8553 15.2658 20.7308C14.6788 20.3039 14.0918 19.8592 13.5049 19.4324C13.4604 19.3968 13.4159 19.3612 13.3804 19.3167C13.327 19.2278 13.3804 19.1744 13.4337 19.1211C14.2341 18.4096 15.0257 17.6803 15.8261 16.9688C16.4042 16.4441 16.9911 15.9194 17.5692 15.3947C18.1473 14.87 18.7254 14.3541 19.3035 13.8383C19.757 13.4292 20.2106 13.029 20.6553 12.6199C20.6909 12.5843 20.7264 12.5487 20.762 12.5132C20.7887 12.4776 20.8243 12.442 20.8065 12.3976C20.7887 12.3442 20.7353 12.3442 20.6909 12.3442C20.5308 12.3264 20.3974 12.3887 20.264 12.4687C19.7748 12.7622 19.3035 13.0735 18.8232 13.3758C17.3647 14.2919 15.8972 15.2168 14.4387 16.1328C13.4337 16.7643 12.4288 17.3957 11.4238 18.0361C11.3082 18.0983 11.2281 18.2139 11.0769 18.1606Z" fill="#245549"/>
<path d="M13.0872 23.3189C13.0605 22.972 13.1227 22.6252 13.1316 22.2872C13.1494 21.9137 13.185 21.5401 13.2028 21.1666C13.2295 20.7842 13.2561 20.4018 13.2828 20.0282C13.2917 19.8326 13.3095 19.6369 13.3095 19.4502C13.3095 19.3879 13.3273 19.3434 13.3895 19.3079C14.1099 19.8415 14.8303 20.3662 15.5418 20.8998C15.6218 20.9621 15.7108 21.0065 15.773 21.0866C15.106 21.7358 14.4301 22.385 13.7631 23.0343C13.5852 23.2121 13.3718 23.3544 13.0872 23.3189Z" fill="#245549"/>
</svg>
