<svg width="50" height="50" viewBox="0 0 50 50" fill="none" xmlns="http://www.w3.org/2000/svg">
<path d="M25 50C38.8071 50 50 38.8071 50 25C50 11.1929 38.8071 0 25 0C11.1929 0 0 11.1929 0 25C0 38.8071 11.1929 50 25 50Z" fill="url(#paint0_linear_283_258)"/>
<path d="M17 26.8275L19.966 35.0371C19.966 35.0371 20.3369 35.8052 20.734 35.8052C21.131 35.8052 27.0371 29.6611 27.0371 29.6611L33.6048 16.9756L17.1058 24.7084L17 26.8275Z" fill="#C8DAEA"/>
<path d="M22.5793 28.9329L22.01 34.9842C22.01 34.9842 21.7716 36.8383 23.6254 34.9842C25.4791 33.13 27.2535 31.7002 27.2535 31.7002" fill="#A9C6D8"/>
<path d="M17.6422 27.1204L11.541 25.1325C11.541 25.1325 10.8118 24.8367 11.0466 24.1658C11.0949 24.0275 11.1924 23.9098 11.4841 23.7075C12.836 22.7652 36.5062 14.2575 36.5062 14.2575C36.5062 14.2575 37.1745 14.0323 37.5687 14.1821C37.6662 14.2123 37.7539 14.2678 37.8229 14.343C37.8919 14.4183 37.9397 14.5105 37.9614 14.6102C38.004 14.7864 38.0218 14.9677 38.0143 15.1488C38.0124 15.3054 37.9935 15.4506 37.9791 15.6783C37.8349 18.0044 33.5207 35.3644 33.5207 35.3644C33.5207 35.3644 33.2626 36.3802 32.3378 36.415C32.1106 36.4223 31.8841 36.3838 31.6721 36.3018C31.46 36.2198 31.2666 36.0959 31.1035 35.9375C29.2887 34.3765 23.0162 30.161 21.6301 29.234C21.5989 29.2127 21.5725 29.1849 21.5529 29.1526C21.5333 29.1202 21.5208 29.084 21.5164 29.0465C21.497 28.9488 21.6032 28.8277 21.6032 28.8277C21.6032 28.8277 32.5253 19.1194 32.816 18.1002C32.8385 18.0213 32.7535 17.9823 32.6393 18.0169C31.9139 18.2838 19.3385 26.2252 17.9505 27.1017C17.8506 27.1319 17.745 27.1383 17.6422 27.1204V27.1204Z" fill="white"/>
<defs>
<linearGradient id="paint0_linear_283_258" x1="25" y1="50" x2="25" y2="0" gradientUnits="userSpaceOnUse">
<stop stop-color="#1D93D2"/>
<stop offset="1" stop-color="#38B0E3"/>
</linearGradient>
</defs>
</svg>
